<?xml version="1.0" encoding="UTF-8"?>
<!DOCTYPE svg PUBLIC "-//W3C//DTD SVG 1.1//EN" "http://www.w3.org/Graphics/SVG/1.1/DTD/svg11.dtd">
<!-- Creator: CorelDRAW -->
<svg xmlns="http://www.w3.org/2000/svg" xml:space="preserve" width="87px" height="87px" version="1.1" shape-rendering="geometricPrecision" text-rendering="geometricPrecision" image-rendering="optimizeQuality" fill-rule="evenodd" clip-rule="evenodd"
viewBox="0 0 10.27 10.27"
 xmlns:xlink="http://www.w3.org/1999/xlink"
 xmlns:xodm="http://www.corel.com/coreldraw/odm/2003">
 <g id="Layer_x0020_1">
  <metadata id="CorelCorpID_0Corel-Layer"/>
  <path fill="#2D3F50" d="M7.86 3.98l0.67 2.49 -5.6 1.47 -0.66 -2.49 5.59 -1.47zm-3.56 -1.26c0.19,0 0.28,-0.02 0.4,-0.12 0.1,0.05 1.4,1.04 1.55,1.15 0.07,0.05 0.15,0.12 0.21,0.16 -0.04,0.04 -2.76,0.76 -3.02,0.81l0.86 -2zm0 -0.74c0.31,-0.11 0.43,0.35 0.15,0.43 -0.29,0.08 -0.43,-0.33 -0.15,-0.43zm-2.49 3.27l0 0.12c0.04,0.07 0.57,2.08 0.64,2.34 0.21,0.75 0.12,0.75 0.72,0.59l0.88 -0.24c1.54,-0.42 3.16,-0.83 4.71,-1.24 0.14,-0.04 0.15,-0.07 0.22,-0.15l0 -0.14c0,-0.01 -0.01,-0.01 -0.01,-0.02 0,0 0,-0.01 -0.01,-0.01l-0.02 -0.08c-0.01,-0.04 -0.02,-0.07 -0.03,-0.11l-0.64 -2.38c-0.04,-0.15 -0.07,-0.33 -0.18,-0.38 -0.12,-0.05 -0.73,0.14 -0.89,0.18 -0.5,0.14 -0.35,0.15 -0.6,-0.03l-1.09 -0.82c-0.11,-0.08 -0.2,-0.16 -0.32,-0.24 -0.06,-0.04 -0.09,-0.07 -0.16,-0.12 -0.05,-0.03 -0.1,-0.06 -0.14,-0.11 -0.02,-0.1 0.04,-0.2 0.01,-0.33 -0.05,-0.27 -0.36,-0.5 -0.69,-0.39 -0.17,0.05 -0.32,0.21 -0.36,0.4 -0.05,0.31 0.14,0.44 0.2,0.53l-0.9 2.15c-0.04,0.06 -0.01,0.03 -0.1,0.06l-0.83 0.22c-0.29,0.08 -0.29,0.05 -0.41,0.2zm1.94 1.54c0.03,-0.09 0.11,-0.2 0.17,-0.28 0.03,-0.05 0.06,-0.09 0.09,-0.14 0.03,-0.06 0.04,-0.09 0.06,-0.16 0.1,-0.45 -0.38,-0.65 -0.75,-0.37 -0.35,0.27 -0.05,0.59 0.11,0.39 0.03,-0.04 0.08,-0.24 0.25,-0.21 0.22,0.05 -0.1,0.43 -0.19,0.57 -0.09,0.15 -0.21,0.62 0.12,0.55 0.12,-0.02 0.24,-0.06 0.36,-0.09 0.11,-0.03 0.29,-0.05 0.33,-0.13 0.06,-0.13 -0.03,-0.24 -0.19,-0.22 -0.12,0.02 -0.25,0.08 -0.36,0.09zm0.98 -0.54c0.02,-0.12 0.16,-0.64 0.14,-0.72 -0.03,-0.11 -0.21,-0.12 -0.28,-0.05 -0.05,0.06 -0.24,0.96 -0.2,1.05 0.07,0.18 0.45,-0.01 0.63,-0.04 0.03,0.13 0.05,0.27 0.23,0.24 0.17,-0.04 0.13,-0.18 0.09,-0.31 0.02,-0.02 0,0 0.03,-0.02 0.2,-0.13 0.1,-0.32 -0.1,-0.29 -0.04,-0.06 -0.05,-0.16 -0.07,-0.21l-0.02 -0.02c-0.07,-0.09 0.05,0.04 -0.02,-0.02 -0.04,-0.04 -0.09,-0.04 -0.15,-0.03 -0.19,0.05 -0.11,0.22 -0.08,0.37l-0.2 0.05zm2.42 -1.13c-0.04,0.22 -0.1,0.33 -0.08,0.58 0.01,0.16 0.06,0.43 0.19,0.47 0.09,0.03 0.18,-0.02 0.21,-0.08 0.08,-0.19 -0.16,-0.16 -0.02,-0.86 0.03,-0.14 0.13,-0.43 -0.07,-0.47 -0.04,-0.01 -0.7,0.14 -0.76,0.2 -0.06,0.05 -0.06,0.17 0.01,0.23 0.1,0.08 0.39,-0.04 0.52,-0.07zm-0.92 -0.05c-0.21,-0.03 -0.26,0.02 -0.28,0.21l-0.09 0.86c-0.02,0.16 -0.07,0.32 0.06,0.37 0.29,0.1 0.26,-0.29 0.3,-0.64 0.01,-0.14 0.03,-0.28 0.05,-0.43 0.04,-0.39 0.02,-0.23 -0.04,-0.37z"/>
  <circle fill="none" stroke="#F560AD" stroke-width="0.36" stroke-miterlimit="22.9256" cx="5.14" cy="5.14" r="4.96"/>
 </g>
</svg>
