<?xml version="1.0" encoding="UTF-8"?>
<!DOCTYPE svg PUBLIC "-//W3C//DTD SVG 1.1//EN" "http://www.w3.org/Graphics/SVG/1.1/DTD/svg11.dtd">
<!-- Creator: CorelDRAW -->
<svg xmlns="http://www.w3.org/2000/svg" xml:space="preserve" width="879px" height="764px" version="1.1" shape-rendering="geometricPrecision" text-rendering="geometricPrecision" image-rendering="optimizeQuality" fill-rule="evenodd" clip-rule="evenodd"
viewBox="0 0 2398.74 2086.85"
 xmlns:xlink="http://www.w3.org/1999/xlink"
 xmlns:xodm="http://www.corel.com/coreldraw/odm/2003">
 <g id="Layer_x0020_1">
  <metadata id="CorelCorpID_0Corel-Layer"/>
  <rect fill="#FFF4F9" stroke="white" stroke-width="2.73" stroke-miterlimit="22.9256" transform="matrix(-8.71166E-001 0.0839251 0.108893 0.671419 1927.73 -3.24295E+001)" width="2273.99" height="2273.99" rx="545.52" ry="545.52"/>
  <path fill="#FE6591" d="M1680.09 1533.72c-6.04,-3.9 -21.1,-27.38 -26,-34.89 -33.34,-50.99 -16.12,-105.78 30.29,-112.66 32.68,-4.85 91.02,16.92 100.64,14.99 7.76,-1.55 31.44,-12.42 43.39,-15.74 80.38,-22.4 129.88,15.82 144.49,15.64 13.19,-0.16 62.97,-22.04 101.29,-14.65 33.68,6.49 49.3,39.4 44.49,71.36 -3.16,21.09 -26.91,61.08 -41.71,75.74 -8.03,-6.99 -8.61,-20.23 -16.65,-26.28 -23.45,50.37 -90.84,12.12 -82.35,-33.75 2.07,-11.17 4.05,-6.22 -2.86,-16.61 -3.1,-4.66 -6.81,-12.05 -11.13,-13.82 -3.36,29.97 2.98,44.29 -7.35,76.72 -6.97,21.87 -17.93,35.49 -26.11,55.3 -10.42,25.24 3.31,40.64 0.92,69.96 -1.34,16.45 -2.75,61.42 -9.24,73.11 -2.01,-3.33 -0.99,0.14 -1.7,-5.02l1.4 -16.33c0.75,-6.73 1.45,-13.44 2.18,-20.17 1.42,-13.18 3.35,-27.74 3.84,-40.87 1.31,-35.66 -17.39,-33.16 5.01,-74.61 11.96,-22.14 21.68,-40.36 25.19,-66.07 3.11,-22.76 -4.87,-60.79 13.77,-76.11 -16.35,-0.87 -48.85,8.3 -56.97,24.39 -11.31,22.38 -3.37,49.64 -10.13,73.47 -7.32,25.79 -23.32,25.59 -20.66,61.62 1.28,17.39 2.54,19.54 -0.4,37.65 -2.26,13.93 -5.87,25.25 13.33,21.1 6.78,-10.55 5.07,-30.21 24.38,-18.97 4.69,14.45 -9.75,32.04 -13.79,47.91 -3.21,12.63 1.78,46.23 -5.82,54.18 -1.7,-3.1 0.1,-48.86 1.44,-54.47 3.2,-13.45 18.03,-32.94 13.97,-45.35 -18,-3.75 -5.63,12.12 -19.29,20.03 -9.53,4.7 -13.08,2.2 -19.83,-3.65 -6.89,6.67 -9.38,6.49 -18.95,4.68 -13.25,-10.26 -5.67,-26.8 -20.96,-20.36 -3.06,11 11.09,31.43 14.19,43.77 2.63,10.46 0.79,18.84 1.5,29.37 0.28,4.23 1.05,8.81 1.34,12.9 0.19,2.71 0.39,5.3 -0.1,7.94 -1.06,5.82 0.67,0.99 -2.19,4.67 -7.03,-17.06 0.22,-39.82 -5.7,-57.74 -5.02,-15.18 -17.02,-29.07 -12.84,-44.77 27,-7.42 13.08,12.78 25.92,19.68 20.21,10.85 11.78,-20.15 10.52,-29.26 -5.31,-38.44 12.66,-34.9 -13.28,-76.21 -15.95,-25.39 -5.07,-54.39 -13.19,-80.44 -7.18,-23.07 -37.79,-32.07 -60.04,-32.46 7.78,14.65 12.1,14.65 12.69,33.95 1.59,51.74 -4.4,53.12 27.1,110.28 21.07,38.24 1.6,41.8 4,75.18 0.91,12.58 9.62,74 6.44,80.2 -6.94,-6.57 -8.8,-58.6 -10.02,-72.1 -2.81,-30.93 11.72,-44.76 0.53,-71.91 -8.29,-20.11 -19.75,-33.96 -26.61,-56.97 -9.31,-31.3 -2.48,-47.49 -6.77,-75.06 -3.74,3.88 -8.72,11.63 -12.19,16.47 -6.99,9.74 -1.94,6.99 -0.98,18.78 2.06,25.5 -22.39,57.79 -55.71,52.48 -19.36,-3.08 -19.59,-11.54 -28.51,-23.75l-14.22 27.53zm66.74 -311.22c-31.98,4.99 -42.39,27.57 -57.27,52.53 -13.51,22.68 -26,45.62 -39.61,68.31 -13.95,23.27 -74.71,121.81 -74.89,141.6 -1.07,9.28 -0.68,16.99 1.82,26 1.75,6.33 7.17,13.94 5.37,19.47l4.79 -0.42 -2.26 4.2c4.08,1.27 4.98,0.45 3.68,5.6l3.64 -0.12 -2.2 3.55 5.05 3.1c-2.05,2.58 5.55,5.52 -3.61,1.45 6.14,3.17 2.71,1.14 6.17,6.37l-7.86 -0.44 10.49 1.05 0.03 5.68 4.25 0.33 -1.51 3.81c6.5,3.39 10.26,13.71 14.19,20.45l-5.69 4.24 10.69 0.71 -0.05 10.1c3.52,-3.79 -0.16,-2.4 4.07,-0.82l-0.4 4.91c5.51,3.49 3.08,-1.96 4.81,3.58l-2.5 2.59 3.78 -0.06 52.3 91.9c7.54,8.28 16.23,29.41 25.39,40.6 9.43,11.51 29.52,21.33 45.47,21.35 31.18,-1.89 64.84,0.65 95.95,0.83 32.55,0.2 65.19,-0.04 97.75,-0.04 27.61,0 61.57,4.19 85.02,-11.31 20.27,-13.39 27.78,-39.54 41.16,-57.3l27.66 -47.83c13.87,-25.2 29.22,-50.45 43.52,-75.89 13.76,-24.49 37.28,-54.22 35.69,-83.37 -1.71,-31.08 -65.02,-122.32 -81.34,-154.63l-10.39 -21.15c-7.53,-6.85 -21.16,-33.39 -27.05,-44.25 -10.15,-18.75 -14.42,-27.83 -32.43,-38.86 -25.27,-15.48 -97.7,-9.25 -130.05,-9.5l-5.55 0.21 -96.33 0.54 -0.69 -5.06c-4.02,5.91 -1.9,2.47 -6.24,5.95l1.94 -7.7 -3.91 5.85 -42.85 1.89z"/>
  <path fill="#FE6591" d="M2183.94 968.76c-2.62,-10.62 1.1,-20.55 11.34,-25.21l11.92 13.84c8.22,-10.12 2.15,-21.6 18.36,-30.26 29.66,-2.67 61.66,50.39 25.23,76.16 -11.94,8.45 -8.74,4.66 -13.57,19.05 -10.24,30.52 -58.9,11.57 -40.04,-25.68 -20.8,-14.46 2.04,-16.9 5.81,-18.21 -1.86,-5.23 -3.87,-6.74 -6.92,-11.62 -6.67,2.45 -2.27,5.63 -12.13,1.93zm69.25 -180.4c-4.77,7.95 0.02,2.26 -9.91,6.47 -1.99,31.25 4.04,27.72 -17.8,50.78 -11.08,11.7 -26,19.98 -40.15,28.47 -2.39,26.15 8.88,27.08 29.77,29.05 -1.77,4.26 -86.02,68.11 -41.5,127.05 13.98,18.5 29.5,13.36 45.86,19.33l1.08 37.73c-6.78,-5.3 -3.52,-25.18 -4.72,-33.75 -17.2,-6.11 -29.19,-2.22 -44.11,-19.35 -11.01,-12.63 -15.69,-30.34 -14.41,-47.29 2.46,-32.5 27.4,-59.39 47.3,-79.41 -20.06,-6.07 -26.12,-13.29 -23.28,-35.51 34.41,-26.66 59.83,-24.92 57.32,-77.91 -37.79,-3.51 -18.23,-34.17 -20.4,-58.22 -1.28,-14.23 -3.22,-23.46 9.86,-32.12 9.17,-6.08 25.22,-8.32 36.15,-6.63 51.71,8 27.45,57.05 36.93,91.39 4.45,16.11 5.7,16.6 19.06,23.26 -2.57,7.86 -12.23,11 -20.13,12.86 6.36,8.6 31.17,28.06 40.49,36.59 6.31,5.78 33.64,32.25 37.46,37.79 15.52,22.51 -5.44,35.2 -18.5,48.2 -8.52,8.5 -31.32,31.02 -36.99,39.15 2.88,16.79 12.22,34.62 5.81,51.88 -3.82,10.29 -7.89,7.06 -8.78,19.28 -0.69,9.57 0.39,19.93 -2.32,29 -11.26,-12.26 15.14,-51.74 -23.05,-101.51 -13.21,-17.22 -13.48,-28.44 -9.58,-49.61 2.37,-12.82 8.14,-38.65 14.3,-49.11 55.58,35.72 59.39,29.15 28.26,59.09 -4.96,4.78 -16,20.18 -19.76,27.17 -13.54,25.18 5.32,7.38 12.53,70.67 10.03,-8.73 5.91,-28.07 2.12,-41.22 -6.17,-21.36 -5.27,-17.22 9.77,-31.59 61.52,-58.8 62.19,-54.5 0.49,-111.13 -8.45,-7.76 -17.84,-16.02 -27.04,-23.92 -14.88,-12.79 -28.31,-3.41 -38.75,-13.96 5.4,-3.16 1.39,-1.38 9.17,0.46 14.84,3.5 23.93,-0.18 37.57,-6.36 -11.82,-16.03 -21.93,-20.02 -18.9,-63.34 1.84,-26.37 -0.68,-47.09 -32.17,-50.99 -9.71,-1.2 -25.75,1.24 -33.67,7.07 -12.43,9.15 -5.41,21.16 -5.87,33.7 -1.22,33.24 -16.31,50.76 30.49,46.49zm-223.62 65.75c-3.39,30.69 1.11,38.37 16.12,63.64 5.84,9.84 27.51,43.6 28.1,51.95 11.99,12.76 12.32,21.32 19.99,33 0.71,-1.92 36.65,61.88 42.87,72.64 6.87,11.87 14.88,27.59 22.79,38.28 13.27,17.95 20.07,15.74 35.9,25.48 31.04,3.94 67.74,2.02 99.54,2.02 34.62,0 69.24,0 103.86,0l0 -499 -250.82 0c-4.93,12.98 -21.5,38.37 -29.3,51.9 -10.17,17.68 -20.43,35.21 -30.51,52.91 -16.21,28.5 -49.7,78.64 -58.54,107.18z"/>
  <path fill="#FDB5D0" d="M2100.38 1334.58c16.32,32.31 79.63,123.55 81.34,154.63 1.59,29.15 -21.93,58.88 -35.69,83.37 -14.3,25.44 -29.65,50.69 -43.52,75.89 5.35,4.09 52.97,86.18 56.37,96.29 19.29,-10.62 95.76,-5.91 121.74,-5.91 16.64,0 47.3,-1.85 62.26,1.77 20.35,4.92 26.26,12.85 39.82,25.71l16.04 0.37 0 -301.12c-84,-12.08 -26.94,140.18 -54.14,185.27 -18.68,30.97 -63.74,30.89 -79.31,0.27 -14.26,-28.05 -2.44,-83.85 -7.34,-116.51 -5.53,-6.74 -9.59,-4.24 -11.61,-13.09 -1.94,-8.52 1.41,-11.74 -3.08,-21.38 -6.74,-14.49 -16.47,-15.52 -28.81,-21.96 -2.78,-10.37 1.75,-7.56 -6.31,-14.15 -38.59,-31.57 -58.85,-141.86 -8.86,-161.99 6.29,-2.53 11.92,-2.51 16.28,-4.12 8.73,-3.23 3.27,-6.38 12.29,-8.81 14.52,-3.91 24.62,8.85 14.45,21.33 -14.76,6.67 -16.94,0.81 -25.34,-7.01 -66.45,-0.38 -44.53,129.82 -1.66,159.57l7.25 -4.76c18.27,7.14 22.5,10.27 43.28,9.65 32.42,-0.97 21.35,-13.14 40.78,-5.61 40.77,-26.88 66.58,-154.52 -1.58,-159.25 -6.58,6.76 -5,12.53 -20.1,9.36 -11.76,-2.47 -10.34,-12.4 -6.88,-21.16 8.56,-3.21 10.11,-2.9 19.58,-1.81 11.37,14.46 4.82,5.75 22.34,11.73 7.87,2.68 16.33,9.34 20.87,15.98 21.67,31.67 10.45,102.68 -20.92,140.17 -3.33,3.98 -7.39,6.26 -9.57,8.88 -5.65,6.79 0.78,2.73 -3.22,11.93 -36.56,14.18 -29.78,32.1 -31.86,42.8 -1.76,9.03 -7.01,7.96 -11.51,13.2 -0.17,24.4 -4.01,94.96 5.5,113.35 16.1,31.17 57.24,28.19 73.11,-4.61 21.62,-44.65 -32.21,-194.82 56.37,-182.57l0 -245.3c-35.3,0 -70.6,0 -105.9,0 -138.35,0 -111.55,-11.34 -171.45,88.66 -3.47,5.8 -6.39,11.16 -9.77,16.85 -8.78,14.74 -4.43,10.89 -11.24,14.09z"/>
  <path fill="#FDB5D0" d="M1819.39 1112.31c-9.45,-18.36 24.43,-49.45 40.93,-53.5 25.25,-6.19 36.15,11.24 -1.76,45.09 -26.31,23.5 -43.67,-1.92 -56.89,40.61 -5.43,17.44 -13.13,18.85 -30.15,20.32 -23.95,2.08 -12.82,10.75 -24.46,21.06 -3.54,-6.89 3.24,-20.43 10.98,-23.91 9.52,-4.27 20.68,0.37 30.23,-6.26 9.35,-6.51 8.3,-15.48 12.84,-25.68 4.93,-11.08 10.17,-10.83 18.28,-17.73zm94.66 -56.65c-5.82,-5.73 -3.46,-14.4 -0.8,-23.5 16.16,-55.43 79,-60.19 109.23,-25.96 18.55,21.01 22.17,52.51 6.57,76.68 -6.84,10.6 -15.69,18.01 -27.41,23.64 -10.47,5.03 -32.44,10.34 -40.48,1.96 5.35,-2.5 23.6,0.29 40.9,-7.78 33.61,-15.69 43.2,-64.41 15.71,-91.84 -33.07,-33 -77.06,-20.13 -93.87,9.64 -7.99,14.16 -5.95,28.84 -9.85,37.16zm-287.81 -84.59c6.06,4.83 99.66,2.43 115.16,1.96 -12.47,37.41 -62.15,83.97 -56.61,126.4 1.73,13.23 54.84,107.93 64.92,119.36l-2.88 3.71 42.85 -1.89 3.91 -5.85c5.12,-35.27 49.18,-15.37 60.49,-31.82 12.71,-18.48 5.61,-44.4 37.89,-53.9 -4.61,-21.28 2.83,-35.74 22.39,-54.85 14.07,-13.75 38.18,-25.98 58.09,-16.06 2.12,13.61 0.89,20.51 -7.57,31.95 -42.91,58.09 -58.95,34.63 -78.01,46.26 -25.55,15.6 -16.07,37.32 -31.87,51.56 -19.24,17.34 -48.28,-4.1 -57.11,28.61l0.69 5.06 96.33 -0.54c4.72,-21.51 7.08,-22.42 23.03,-33.41 -7.14,-32.19 49.31,-69.55 62.35,-49.96 7.26,16.37 -19.25,40.66 -31.89,48.05 -21.73,12.71 -38.73,-5.18 -47.94,35.11 32.35,0.25 104.78,-5.98 130.05,9.5 18.01,11.03 22.28,20.11 32.43,38.86 5.89,10.86 19.52,37.4 27.05,44.25 0.51,-1.66 22.01,-34.84 25.92,-41.82 8.45,-15.11 17.37,-30.18 26.02,-45.2 7.94,-13.79 44.97,-82.98 53.41,-87.31 -15.83,-9.74 -22.63,-7.53 -35.9,-25.48 -7.91,-10.69 -15.92,-26.41 -22.79,-38.28 -6.22,-10.76 -42.16,-74.56 -42.87,-72.64 5.5,25.66 10.14,33.87 6.72,62.19 -4.25,35.15 -24.42,68.45 -53.85,88.69 -7.75,5.33 -37.1,19.42 -45.1,19.02 -7.73,-0.38 -2.37,1.67 -6.53,-3.03 25.23,-8.39 40.21,-11.06 59.99,-30.12 19.07,-18.38 26.05,-25.99 35.23,-52.07 13.79,-39.2 3.78,-88.8 -22.5,-118.35 -3.5,-3.94 -5.92,-4.31 -10.54,-9.77 -27.1,-32 -88.67,-41.93 -134.31,-21.11 -28.85,13.16 -51.97,39.68 -62.86,69.27 -3.61,9.78 -3.98,26.88 -9.11,33.87l-1.44 -2.88c-2.84,-10.17 0.48,9.1 -0.7,-3.27l2.58 -15.74c1.63,-7.23 2.87,-11.66 5.75,-18.6 26.17,-63.08 92.88,-93.54 160.88,-71.73 17.06,5.47 51.45,29.53 55.8,40.63 -0.59,-8.35 -22.26,-42.11 -28.1,-51.95 -15.01,-25.27 -19.51,-32.95 -16.12,-63.64l-176.8 -0.49c-8.37,9.56 -24.43,41.55 -32.63,55.09 -11.17,18.46 -18.36,37.88 -35.32,50.21 -23.98,17.41 -46.39,12.35 -74.42,12.36 -27.66,0 -56.87,-0.85 -84.16,-0.21z"/>
  <path fill="#FE6591" d="M2227.98 1951.74c11.54,1.91 16.27,10.54 24.08,16.13 6.07,-2.11 4.98,-2.57 10.09,-8.3 4.97,-5.57 5.44,-6.31 12.83,-8.3 -2.9,7.89 -13.4,14.48 -19.85,21.44l-0.68 68.44c-1.13,4.66 -0.13,1.7 -2.34,4.85 -4.44,-10.37 -1.7,-44.06 -1.6,-57.77 0.25,-31.61 -9.33,-17.39 -22.53,-36.49zm156.47 135.11l-256.18 0 -7.73 -13.24 -18.41 -33.05 -186.02 -0.67 138.46 0.66c19.77,0 38.31,3.13 46.83,-5.46l-184.04 -0.45 180.06 0.23c-3.72,-8.03 -3.57,-9.56 -11.72,-12.56 4.58,-4.46 4.83,3.57 3.26,-4.75l-4.51 -3.06c0.26,-6.16 -19.6,-38.21 -25.7,-44.77l-0.58 -5.56 -4.14 1.68c1.22,-8.48 -4.25,-14.8 -5.84,-24.24 -1.62,-9.57 -0.9,-17.81 0.18,-27.61l-58.45 -1.06 52.58 -0.19c0.87,-0.22 1.22,-0.31 2.05,-0.59l-53.12 -4.39 58.68 0.62 3.52 -8.89 -62.6 -0.29c9.77,-3.36 49.45,1.49 65.92,-2 -10.95,-10.22 -40.06,-1.51 -55.22,-4.37l56.3 0.12c2.92,-7.73 3.29,-4.08 2.66,-11.92l2.71 1.54 1.97 -5.11c5.17,-4.76 30.72,-51.71 36.52,-61.82 5.82,-10.15 11.83,-21.13 17.97,-31.01l19.63 -29.45 19.39 -10.43c19.29,-10.62 95.76,-5.91 121.74,-5.91 16.64,0 47.3,-1.85 62.26,1.77 20.35,4.92 26.26,12.85 39.82,25.71l16.04 26.84 0 271.18 -14.29 22.5zm-155.52 -191.84c-6.16,7.3 -12.25,14.56 -21.5,5.7 -4.36,-4.17 -14.96,-13.65 -15.55,-18.77 -1.23,-10.7 7.58,-15.57 17.21,-15.37 15.1,0.31 10.85,6.12 27.7,0.6 11.53,-3.79 18.73,-3.26 30.14,0.4 13.69,4.39 14.93,-1.79 27.89,-1.03 10.05,0.58 18.5,8.57 13.77,18.94 -2.4,5.26 -6.49,4.68 -10.15,8.61 -1.62,1.73 -8.5,23.02 -25.42,0.8 -2.73,10.15 -8.56,16.24 -8.47,25.85 0.11,12.15 0.29,16.55 -1.51,29.19 -4.8,-4.8 -3.66,2.26 -3.17,-10.43 0.45,-11.29 -0.17,-23.24 2.11,-29.01 7.09,-17.9 4.81,-16.26 8.37,-34.02 -6.83,3.86 -20.19,36.19 -14.77,54.63l-9.43 -0.08c3.26,-13.74 2.13,-16.62 -2.56,-29.75 -4.62,-12.95 3.23,-22.67 -11.78,-24.71 2.08,18.98 0.33,16.54 7.88,34.46 3.42,8.11 0.75,11.88 1,20.2 0.26,8.81 3.4,12.29 -0.8,18.2 -4.76,-7.68 -3.06,-19.71 -2.83,-28.99 0.21,-8.11 -5.82,-15.55 -8.13,-25.42zm29.16 -79.69c3.7,6.35 2.53,10.38 -1.91,15.75l-1.36 -2.38c-7.62,-17.21 1.82,-13.2 3.27,-13.37zm-71.15 -49.07l1.71 2.33c1.06,2.37 1.01,1.75 1.56,4.29 0.45,2.06 0.76,7.3 0.88,9.59 0.98,18.16 -1.72,37.4 -9.62,53.74 -10.05,20.79 -17.45,37.36 -23.34,60.26 -10.75,41.74 -12.23,87.04 -5.52,129.88 4.11,26.26 3.16,15.32 -1.13,20.03 -10.37,-82.96 -13.25,-132.19 25.6,-210.57 13.33,-26.89 6.4,-62.23 9.86,-69.55zm160.89 280.08c-2.33,-3.99 5.11,-61.29 5.3,-72.34 0.78,-44.52 -10.93,-96.8 -32.04,-136.15 -9.01,-16.81 -15.54,-53.67 -7.81,-71.13 3.24,1.51 3.45,-4.78 1.74,13.71 -4.14,44.69 18,62.53 32.79,116.09 6.67,24.16 9.9,50.39 9.46,75.45 -0.28,15.16 -1.29,64.82 -9.44,74.37z"/>
  <path fill="#FDB5D0" d="M1754.97 1764.12c11.56,5.18 64.6,-0.33 83.12,2.38 -12.94,26.28 -32.95,57.42 -48.07,83.44 -25.12,43.21 -24.63,52.39 -0.44,95.68l72.8 124.85c6.96,9.3 12.02,13.5 17.48,16.38l223.42 0c7.23,-4.53 9.89,-9.64 17.26,-13.24l-18.41 -33.05 -186.02 -0.67 -6.64 -4.6c2.51,-15.63 31.62,-17.06 45.15,-20.9 15.83,-4.5 35.72,-10.9 51.7,-13.42l-0.21 -22.8c-16.14,-10.53 -10.61,-16.92 -10.81,-36.77 -1.43,-3.97 -148.78,-115.56 -151.03,-119.4 -0.22,-0.36 -3.9,-17.94 -0.55,-28.36 16.85,-3.8 28.86,12.84 41.28,21.99l72.24 56.1c21.9,16.53 22.49,22.61 38.54,20.92 3.2,-12.72 -1.41,-17.49 4.76,-33.87 16.48,-5.19 19.05,-0.4 34.56,4.4 12.78,3.95 20.78,3.8 30.27,14.29 5.17,-4.76 30.72,-51.71 36.52,-61.82 5.82,-10.15 11.83,-21.13 17.97,-31.01l19.63 -29.45c-13.77,-10.51 -13.05,-43.33 -54.67,-53.68 -7.84,-1.95 -7.07,-1.68 -9.97,-5.21 -13.38,17.76 -20.89,43.91 -41.16,57.3 -23.45,15.5 -57.41,11.31 -85.02,11.31 -32.56,0 -65.2,0.24 -97.75,0.04 -31.11,-0.18 -64.77,-2.72 -95.95,-0.83z"/>
  <path fill="#FE6591" d="M1626.24 971.07c27.29,-0.64 56.5,0.21 84.16,0.21 28.03,-0.01 50.44,5.05 74.42,-12.36 16.96,-12.33 24.15,-31.75 35.32,-50.21 8.2,-13.54 24.26,-45.53 32.63,-55.09 28.12,-61.56 14.12,-63.33 -23.87,-130.35l-6.76 -8.37 -1.08 16.03c-6.11,-2.97 -3.12,-9.31 -4.17,-17.53 -9.05,3.96 -35.74,33.71 -42.86,40.87 10.38,18.34 18.95,24.07 19.48,48.8 0.81,37.54 -25.27,69.95 -62.89,75.12 -27.26,3.76 -35.75,-4.18 -57.18,-14.59 -30.97,18.58 -27.82,10 -42.99,16.79l-0.06 33.81c9.11,0.38 19.48,-1.57 24.25,2.85 -6.15,3.3 -17.04,1.67 -24.57,1.41l-0.29 28.8c-6.68,-3.9 -3.75,-21.19 -3.71,-28.86 -7.51,0.29 -18.41,2.01 -24.68,-1.35 5.07,-4.81 15.39,-1.85 24.29,-3.35l0.23 -34.15c-25.48,-5.04 -42.1,-9.61 -57.1,-30.68 -50.3,-70.63 38.79,-152.36 105.01,-101.35 17.76,-10.05 26.73,-16.25 48.81,-15.57 23.47,0.72 29.94,8.2 47.58,19.18l39.29 -38.41c1.99,-2.53 0.97,-1.01 2.25,-3.59 -11.14,-1.05 -9.21,2.72 -15.94,-1.84 5.43,-3.35 13.5,-2.86 20.89,-3.3 -28.89,-72.54 -76.45,-58.95 -142.95,-58.95 -85.98,0 -83.36,4.81 -123.98,76.78 -58,102.75 -54.87,75.42 18.3,205.19 12.57,22.28 29.03,45 58.17,44.06z"/>
  <path fill="#FDB5D0" d="M1401.27 1140.88c-7.6,-8.11 -3.63,-32.23 -3.63,-44.62 0,-66.54 -6.73,-57.63 35.8,-57.61l93.68 0c11.22,0 36.79,-5.39 39.6,8.61 2.02,10.08 1.19,84.96 -1.61,93.32 -14.93,7.29 -45.52,-1.77 -63.09,3.31l0.2 15.79c46.97,7.69 45.46,-15.53 53.67,44.97 27.78,0.36 31.2,0.81 30.94,30.1 -0.44,48.3 22.39,28.09 24.3,25.06 5.22,-8.24 2.91,-100.21 2.44,-116.3 -13.87,-9.89 -10.12,-13.52 -9.92,-31.06 0.25,-21.35 -8.64,-14.01 -7.71,-30.46 10.27,-16.61 28.3,-14.2 41.18,-0.72 -0.12,10.32 0.28,7.94 -4.99,16 -10.87,16.64 8.38,33.71 -12.99,45.57 -1.59,21.44 -0.53,43.76 -0.53,65.43 0,13.32 4.32,48.86 -5.52,57.45 -6.24,5.46 -15.86,6.55 -23.13,1.97 -15.45,-9.75 -2.42,-44.22 -11.32,-54.09 -4.83,-5.35 -15.67,-5.12 -21.34,-2.21 12.46,83.93 27.82,71.7 -77.02,71.7 -99.87,0 -87.72,15.47 -71.33,-86.51 7.22,-44.86 9.09,-34.96 53.17,-36.38l0.48 -17.5c-12.54,-0.04 -52.49,2.5 -61.33,-1.82zm-79.25 36.84c4.39,19.21 48.03,87.54 60.51,109.9 29.07,52.06 63.91,39.47 132.37,39.47 69.99,0 79.23,4.84 113.13,-58.71 17.67,-33.12 58.01,-80.67 49.48,-118.82 -3.59,-16.06 -49.26,-91.75 -60.72,-110.38 -31.67,-51.49 -57.21,-38.97 -132.44,-38.97 -74.25,0 -75.97,-5.02 -112.84,58.6 -17.96,31.01 -57.61,83.43 -49.49,118.91z"/>
  <path fill="#FDB5D0" d="M1684.11 1702.17l-52.3 -91.9 -3.78 0.06 -112.94 110.95c-14.83,0.82 -20.17,-9.78 -29.67,-19.23 -32.44,-32.28 -41.99,-34.91 -21.97,-54.46 21.83,-21.31 108.98,-112.11 118.8,-117.18 1.8,-5.53 -3.62,-13.14 -5.37,-19.47 -2.5,-9.01 -2.89,-16.72 -1.82,-26 -86.32,7.25 -84.35,-17.88 -130.67,66.31 -41.02,74.56 -47.21,65.49 -7.56,136.19 43.57,77.68 40.8,79.26 116.76,79.26 27.31,0 65.16,4.69 88.63,-9.58 23.17,-14.09 31.78,-48.8 41.89,-54.95z"/>
  <path fill="#FE6591" d="M1573.59 1853.12c24.05,-6.49 60.69,-12.13 82.99,1.28 -1.37,18.57 -10.47,12.9 0.4,30.45 7.64,12.34 6.81,21.21 7.65,35.24 2.89,48.27 8.91,47.8 -25.72,51.8 13.05,15.56 57.9,3.79 56.08,65.62l-159.82 -0.24c-3.04,-59.71 41.88,-48.38 56.42,-65.17 -34.3,-5.8 -29.12,-5.09 -26.79,-40.32 1.68,-25.38 -1.35,-34.39 14.31,-55.51l-5.52 -23.15zm-96.53 100.5c1.74,21.26 32.06,69.23 44.39,89.1 24.41,39.3 58.49,33.03 99.35,33.03 47.8,0 66.29,1.47 92.47,-41.94 54.45,-90.27 51.52,-87.26 -5.03,-181.9 -22.58,-37.78 -61.38,-33.26 -99.66,-33.26 -46.61,-0.01 -67.69,-1 -92.6,42.38 -15.59,27.13 -41.54,60.67 -38.92,92.59z"/>
  <path fill="white" d="M2089.99 1313.43l10.39 21.15c6.81,-3.2 2.46,0.65 11.24,-14.09 3.38,-5.69 6.3,-11.05 9.77,-16.85 59.9,-100 33.1,-88.66 171.45,-88.66 35.3,0 70.6,0 105.9,0l0 -73.86c-34.62,0 -69.24,0 -103.86,0 -31.8,0 -68.5,1.92 -99.54,-2.02 -8.44,4.33 -45.47,73.52 -53.41,87.31 -8.65,15.02 -17.57,30.09 -26.02,45.2 -3.91,6.98 -25.41,40.16 -25.92,41.82z"/>
  <path fill="white" d="M1743.79 1464.59c53.71,-15.29 30.29,59.19 -11.01,61.41 -20.5,1.11 -40.91,-13.85 -31.59,-35.47 7.11,-16.53 27.17,-21.55 42.6,-25.94zm245.19 -0.53c21.22,-11.82 98.8,25.81 56.38,56.82 -38.71,28.31 -83.57,-41.69 -56.38,-56.82zm-217.61 -2.57c-15.04,-7.22 -29.61,-2.33 -44.32,3.76 -17.03,7.05 -19.2,15.93 -38.69,13.18 -34.78,-4.91 -39.21,-37.24 -20.86,-62.49 18.35,-25.25 58.18,-13.55 84.38,-6.8 30.5,7.86 52.34,19.74 19.49,52.35zm211.54 -0.49c-24.5,-31.71 -17.43,-42.09 21.83,-52.01 24.94,-6.3 67.54,-18.93 84.2,7.28 16.63,26.17 12.95,58.32 -22.55,62.41 -18.33,2.12 -21.47,-7.27 -38.15,-13.94 -19.13,-7.64 -25.51,-8.21 -45.33,-3.74zm-190.13 -57.23c15.82,-12.43 65.78,-22.17 86.65,-21.75 18.89,0.39 71.13,9.69 83.5,21.75 -16.11,8.49 -66.59,19.23 -85.54,18.84 -18.62,-0.37 -70.29,-9.48 -84.61,-18.84zm-113.03 121.89c-16.95,-15.38 -37.63,-51.57 -38.96,-74.98 -1.86,-32.8 17.28,-59.07 51.19,-60.95 59.62,-3.31 125.63,37.04 187.45,37.11 59.15,0.07 126.83,-42.67 187.33,-37.16 61.02,5.56 63.27,83.05 10.21,135.42 -5.9,-6.96 -17.84,-31.81 -19.69,-41.19 73.74,-9.67 41.22,-67.47 25.3,-79.59 -25.58,-19.46 -91.78,4.51 -121.64,11.8 -20.09,4.91 -37.03,5.53 -49.02,24.19 -10.56,16.43 -6.74,45.28 -9.09,64.46 -3.16,25.82 -16.98,30.16 -21.6,51.41 -4.42,20.33 6.75,46.49 -4.08,64.26 -5.75,-40.92 3.03,-45.25 -3.09,-66.81 -6.25,-22.02 -18.49,-23.42 -21.26,-52.05 -2.03,-21.02 2.12,-44.62 -10.01,-63.14 -11.38,-17.35 -30.15,-18.11 -48.77,-22.54 -31.05,-7.38 -92.58,-30.55 -120.24,-12.07 -16.05,10.72 -48.83,72.11 24.5,79.95 -1.68,14.35 -12.9,28.35 -18.53,41.88zm0.34 8.06l14.22 -27.53c8.92,12.21 9.15,20.67 28.51,23.75 33.32,5.31 57.77,-26.98 55.71,-52.48 -0.96,-11.79 -6.01,-9.04 0.98,-18.78 3.47,-4.84 8.45,-12.59 12.19,-16.47 4.29,27.57 -2.54,43.76 6.77,75.06 6.86,23.01 18.32,36.86 26.61,56.97 11.19,27.15 -3.34,40.98 -0.53,71.91 1.22,13.5 3.08,65.53 10.02,72.1 3.18,-6.2 -5.53,-67.62 -6.44,-80.2 -2.4,-33.38 17.07,-36.94 -4,-75.18 -31.5,-57.16 -25.51,-58.54 -27.1,-110.28 -0.59,-19.3 -4.91,-19.3 -12.69,-33.95 22.25,0.39 52.86,9.39 60.04,32.46 8.12,26.05 -2.76,55.05 13.19,80.44 25.94,41.31 7.97,37.77 13.28,76.21 1.26,9.11 9.69,40.11 -10.52,29.26 -12.84,-6.9 1.08,-27.1 -25.92,-19.68 -4.18,15.7 7.82,29.59 12.84,44.77 5.92,17.92 -1.33,40.68 5.7,57.74 2.86,-3.68 1.13,1.15 2.19,-4.67 0.49,-2.64 0.29,-5.23 0.1,-7.94 -0.29,-4.09 -1.06,-8.67 -1.34,-12.9 -0.71,-10.53 1.13,-18.91 -1.5,-29.37 -3.1,-12.34 -17.25,-32.77 -14.19,-43.77 15.29,-6.44 7.71,10.1 20.96,20.36 9.57,1.81 12.06,1.99 18.95,-4.68 6.75,5.85 10.3,8.35 19.83,3.65 13.66,-7.91 1.29,-23.78 19.29,-20.03 4.06,12.41 -10.77,31.9 -13.97,45.35 -1.34,5.61 -3.14,51.37 -1.44,54.47 7.6,-7.95 2.61,-41.55 5.82,-54.18 4.04,-15.87 18.48,-33.46 13.79,-47.91 -19.31,-11.24 -17.6,8.42 -24.38,18.97 -19.2,4.15 -15.59,-7.17 -13.33,-21.1 2.94,-18.11 1.68,-20.26 0.4,-37.65 -2.66,-36.03 13.34,-35.83 20.66,-61.62 6.76,-23.83 -1.18,-51.09 10.13,-73.47 8.12,-16.09 40.62,-25.26 56.97,-24.39 -18.64,15.32 -10.66,53.35 -13.77,76.11 -3.51,25.71 -13.23,43.93 -25.19,66.07 -22.4,41.45 -3.7,38.95 -5.01,74.61 -0.49,13.13 -2.42,27.69 -3.84,40.87 -0.73,6.73 -1.43,13.44 -2.18,20.17l-1.4 16.33c0.71,5.16 -0.31,1.69 1.7,5.02 6.49,-11.69 7.9,-56.66 9.24,-73.11 2.39,-29.32 -11.34,-44.72 -0.92,-69.96 8.18,-19.81 19.14,-33.43 26.11,-55.3 10.33,-32.43 3.99,-46.75 7.35,-76.72 4.32,1.77 8.03,9.16 11.13,13.82 6.91,10.39 4.93,5.44 2.86,16.61 -8.49,45.87 58.9,84.12 82.35,33.75 8.04,6.05 8.62,19.29 16.65,26.28 14.8,-14.66 38.55,-54.65 41.71,-75.74 4.81,-31.96 -10.81,-64.87 -44.49,-71.36 -38.32,-7.39 -88.1,14.49 -101.29,14.65 -14.61,0.18 -64.11,-38.04 -144.49,-15.64 -11.95,3.32 -35.63,14.19 -43.39,15.74 -9.62,1.93 -67.96,-19.84 -100.64,-14.99 -46.41,6.88 -63.63,61.67 -30.29,112.66 4.9,7.51 19.96,30.99 26,34.89z"/>
  <path fill="#FE6591" d="M1679.75 1525.66c5.63,-13.53 16.85,-27.53 18.53,-41.88 -73.33,-7.84 -40.55,-69.23 -24.5,-79.95 27.66,-18.48 89.19,4.69 120.24,12.07 18.62,4.43 37.39,5.19 48.77,22.54 12.13,18.52 7.98,42.12 10.01,63.14 2.77,28.63 15.01,30.03 21.26,52.05 6.12,21.56 -2.66,25.89 3.09,66.81 10.83,-17.77 -0.34,-43.93 4.08,-64.26 4.62,-21.25 18.44,-25.59 21.6,-51.41 2.35,-19.18 -1.47,-48.03 9.09,-64.46 11.99,-18.66 28.93,-19.28 49.02,-24.19 29.86,-7.29 96.06,-31.26 121.64,-11.8 15.92,12.12 48.44,69.92 -25.3,79.59 1.85,9.38 13.79,34.23 19.69,41.19 53.06,-52.37 50.81,-129.86 -10.21,-135.42 -60.5,-5.51 -128.18,37.23 -187.33,37.16 -61.82,-0.07 -127.83,-40.42 -187.45,-37.11 -33.91,1.88 -53.05,28.15 -51.19,60.95 1.33,23.41 22.01,59.6 38.96,74.98z"/>
  <path fill="#FE6591" d="M1669.78 859.79c-21.77,-25.5 -31.85,-53.82 -15.91,-86.9 4.67,-9.7 12.95,-15.65 16.3,-23.68 -15.24,-5.81 -39.23,-23.95 -73.98,-5.46 -48.52,25.8 -50.86,94.85 -1.72,122.27 21.08,11.75 59.39,12.4 75.31,-6.23z"/>
  <path fill="#FE6591" d="M1677.95 749.76c4.39,8.32 11.12,13.19 16.55,24.32 14.34,29.38 6.36,62.3 -16.22,85.78 16.13,17.85 54.49,18.34 75,6.44 53.69,-31.18 42.43,-100.16 -0.39,-122.15 -30.92,-15.87 -47.44,-7.15 -74.94,5.61z"/>
  <path fill="#FDB5D0" d="M1494 1267.03c-28.18,12.4 -34.61,-14.51 -22.69,-23.07 14.09,-10.1 34.56,2.65 22.69,23.07zm26.23 -6.58c-19.67,8.79 -14.26,-22.82 2.39,-7.5l-2.39 7.5zm-65.11 -0.04c-8.3,3.79 -3.46,3.01 -12.48,0.86l-0.53 -9.83c9.53,-5.86 14.94,-1.51 13.01,8.97zm-19.91 -3.54c-6.54,3.35 -14.89,3.27 -21.48,-0.44 -1.59,-12.35 11.2,-12.4 20.59,-7.66l0.89 8.1zm28.57 -26.99l-1.05 9.64c-7.71,3.58 -3.33,2.92 -10.21,0.35 -6.06,-8.89 1.66,-14.12 11.26,-9.99zm37.66 9.98c-3.3,-5.23 -3.32,-3.04 -1.07,-9.19 7.04,-4.63 3.85,-3.95 12.97,-1.53l-1.24 11.88 -10.66 -1.16zm-84.74 -10c7.46,-3.15 24.09,-6.73 21.18,6.87 -7.59,6.32 -21.18,7.71 -21.18,-6.87zm72.25 -7.34c-0.19,5.48 -2.27,11.74 -9.65,8.96 -7.28,-2.74 -4.15,-8.56 -1.71,-11.62 7.36,-2.27 5.99,-2.41 11.36,2.66zm-69.72 -4.03c-1.21,-13.54 13.56,-11.71 21.42,-7.02 0.06,13.21 -13.75,11.86 -21.42,7.02zm63.09 -23.6c28.08,-0.05 33.67,-3.34 32.67,9.45 -5.7,3.48 -58.98,6.54 -66.55,-2.3 1.63,-11.84 23.88,-7.13 33.88,-7.15zm40.74 -5.49c-11.35,-8.44 -3.62,-18.73 9.18,-11.93l-0.2 9.38 -8.98 2.55zm-33.23 -12.08c6.52,-3.82 4.8,-2.73 12.15,-1.12 4.54,10.92 -2.27,17.09 -12.71,10.1l0.56 -8.98zm-15.74 0.44c2.45,10.29 -2.71,13.86 -11.86,9.99 -3.59,-6.32 -2.46,-3.81 -1.61,-11.47 5.65,-2.19 8.55,-1.67 13.47,1.48zm-41.98 9.41c-1.67,-11.28 3.21,-13.97 13.55,-9.86 1.63,11.33 -3.28,14.76 -13.55,9.86zm125.46 66.97c-29.65,1.12 -25.94,-1.45 -30.25,-29.89 -3.98,-26.21 -6.84,-30.43 20.97,-33.81 0.04,-33.5 -19.57,-25.21 -47.65,-25.01 -20.7,0.15 -49.77,-1.89 -69.32,0.05 -13.55,1.34 -13.73,6.51 -15.51,19.04 -2.82,19.93 -14.25,80.04 -12.02,90.37 10.28,6.04 97.6,3.22 121.29,3.22 15.9,0 46.93,7.08 32.49,-23.97z"/>
  <path fill="#FDB5D0" d="M2035.66 1973.86c-3.64,4.67 -12.07,5.34 -14.89,-0.81l14.89 0.81zm-118.3 60.78l180.06 0.23c-3.72,-8.03 -3.57,-9.56 -11.72,-12.56l-41.64 -21.03 0.21 -27.77 8.57 -3.1 1.19 -4.56c1.22,-8.48 -4.25,-14.8 -5.84,-24.24 -1.62,-9.57 -0.9,-17.81 0.18,-27.61l-58.45 -1.06 -7.58 -3.27c-23.56,-7.06 -0.57,4.25 -32.43,-18.39 -11.35,-8.06 -22.31,-17.32 -33.22,-25.82 -17.94,-13.98 -50.41,-42.17 -68.24,-52.13 1.65,12.14 61.69,53.49 74.56,64.11l77.3 59.13 0.4 32.61 10.64 3.66 -1.18 31.81c-16.81,4.5 -84.76,20.67 -95.6,27.99l2.79 2z"/>
  <path fill="#FDB5D0" d="M1517.96 1706.14l-12.34 1.03c-10.67,-16.34 16.47,-25.93 12.34,-1.03zm12.53 -28.82c4.92,7.35 4.3,4.8 2.19,13.26l-10.8 2.48c-7.36,-10.4 -4.38,-18.26 8.61,-15.74zm-42.4 -2.88c8.32,-1.59 3.56,-2.85 11.29,1.46 4.74,10.82 -0.09,15.24 -10.96,12.89 -4.49,-5.78 -4.61,-8.57 -0.33,-14.35zm58.21 -10.87c4.07,8 2.9,3.23 1.35,11.43 -5.94,4.2 -8.41,4.02 -14.36,-0.35 -2.27,-11.08 2.02,-15.62 13.01,-11.08zm-78.11 4.74c-1.68,-9.84 0.44,-11.94 10.25,-12.37 4.97,4.38 5.04,4.18 4.77,11.02 -5.37,6.83 -8.88,7.25 -15.02,1.35zm93.13 -6.32c-13.37,3.74 -18.18,-4.09 -9.82,-15.33l10.39 1.42c2.08,7.41 2.36,6.81 -0.57,13.91zm-65.47 -6.06c-12.37,4.54 -17.13,-3.75 -9.47,-15.06l10.16 1.17c2.85,6.82 3.37,8.2 -0.69,13.89zm67.03 -8.91c-3.65,-19.46 17.71,-21.49 14.15,0.83l-14.15 -0.83zm-65.71 -16.44c5.91,-5.29 7.85,-5.02 15.33,-1.5l-0.22 13.09 -12.68 -1.02c-3.07,-4.9 -2.69,-3.51 -2.43,-10.57zm83.61 2.6c-5.65,-6.43 -5.68,-8.38 -0.05,-15.42l11.68 0.45 -0.68 14.21 -10.95 0.76zm-69.28 -11.47c1.17,-11.2 6.28,-12.55 16.05,-8.28l-0.33 12.44c-8.89,3.76 -10.22,2.96 -15.72,-4.16zm80.7 -5.97c-1.98,-11.08 3.64,-17.45 14.86,-9.99l0.05 11c-7.15,2.85 -9.02,3.44 -14.91,-1.01zm-72.18 49.5c0.63,-6.92 49.53,-55.3 59.05,-58.75 -3.32,11.15 -20.12,23.77 -28.66,32.37 -6.13,6.18 -22.72,26.48 -30.39,26.38zm7.57 -54.24c-2.82,-10.17 3.44,-18.24 13.4,-11.36 4.5,11.81 -3.34,15.39 -13.4,11.36zm27.46 -27.48c6.71,10.38 -2.46,18.9 -10.94,13.3 -7.13,-4.7 -2.36,-18.21 10.94,-13.3zm27.18 19.44c2.21,-8.42 11.71,-15.9 19.37,-19.31 -2.56,8.23 -10.76,17.97 -19.37,19.31zm-23.63 -20.86c-6.49,-9.77 1.55,-18.73 12.79,-11.87l-0.01 12.87 -12.78 -1zm13.87 -27.28c6.74,-3.69 7.16,-3.4 13.39,-0.16 3.48,14.57 -6.17,19.58 -15.99,7.82l2.6 -7.66zm53.25 49.34l0.4 -4.91c-4.23,-1.58 -0.55,-2.97 -4.07,0.82l-4.9 4.3c-9.28,-1.09 -10.82,-1.71 -10.96,-11.59l5.22 -3.52 5.69 -4.24c-3.93,-6.74 -7.69,-17.06 -14.19,-20.45l-76.84 76.4c-7.29,7.46 -21.65,16.41 -21.14,27.34 10.2,6.18 3.62,-2.04 11.53,2.32 -5.18,10.04 -16.46,4.29 -17,-4.39 -0.64,-10.39 29.76,-36.05 41.05,-47.41 9.87,-9.94 19.54,-19.65 29.62,-29.51 7.5,-7.33 22.33,-23.58 30.04,-28.89l-0.03 -5.68 -10.49 -1.05 -5.03 -7.65 3.84 -6.26c1.3,-5.15 0.4,-4.33 -3.68,-5.6 -11,9.38 -127.23,123.45 -126.91,130.25 3.84,8.97 43.91,49.02 52.96,52.25 7.77,-3.21 104.08,-99.75 114.89,-112.53z"/>
  <path fill="#EC4172" d="M1537.77 1248.15c-5.65,-8.89 -5.46,-22.69 -6.86,-33.41 -2.49,-18.92 1.29,-18.6 18.9,-19.77l8.25 54.49c-7.8,0.35 -12.82,1.37 -20.29,-1.31zm19.8 5.99c14.44,31.05 -16.59,23.97 -32.49,23.97 -23.69,0 -111.01,2.82 -121.29,-3.22 -2.23,-10.33 9.2,-70.44 12.02,-90.37 1.78,-12.53 1.96,-17.7 15.51,-19.04 19.55,-1.94 48.62,0.1 69.32,-0.05 28.08,-0.2 47.69,-8.49 47.65,25.01 -27.81,3.38 -24.95,7.6 -20.97,33.81 4.31,28.44 0.6,31.01 30.25,29.89zm-89.94 -111.43l29.57 -0.02 -1.27 17.66 -29 -0.96 0.7 -16.68zm-64.44 -5.72c-2.61,-11.13 -2.64,-81.74 0.03,-93.32l157.42 0.86c2.87,10.35 3.15,85.67 -0.88,93.1l-156.57 -0.64zm227.96 -48.57c-3.21,9.22 -4.72,3.62 -6.81,11.99 -2.46,9.87 5.72,42.63 -10.26,36.83 -8.89,-3.23 -5.16,-20.31 -5.28,-28.89 -0.23,-17.16 -5.7,-10.27 -8.28,-24.45 14.06,-15.23 34.58,-5.87 30.63,4.52zm-229.88 52.46c8.84,4.32 48.79,1.78 61.33,1.82l-0.48 17.5c-44.08,1.42 -45.95,-8.48 -53.17,36.38 -16.39,101.98 -28.54,86.51 71.33,86.51 104.84,0 89.48,12.23 77.02,-71.7 5.67,-2.91 16.51,-3.14 21.34,2.21 8.9,9.87 -4.13,44.34 11.32,54.09 7.27,4.58 16.89,3.49 23.13,-1.97 9.84,-8.59 5.52,-44.13 5.52,-57.45 0,-21.67 -1.06,-43.99 0.53,-65.43 21.37,-11.86 2.12,-28.93 12.99,-45.57 5.27,-8.06 4.87,-5.68 4.99,-16 -12.88,-13.48 -30.91,-15.89 -41.18,0.72 -0.93,16.45 7.96,9.11 7.71,30.46 -0.2,17.54 -3.95,21.17 9.92,31.06 0.47,16.09 2.78,108.06 -2.44,116.3 -1.91,3.03 -24.74,23.24 -24.3,-25.06 0.26,-29.29 -3.16,-29.74 -30.94,-30.1 -8.21,-60.5 -6.7,-37.28 -53.67,-44.97l-0.2 -15.79c17.57,-5.08 48.16,3.98 63.09,-3.31 2.8,-8.36 3.63,-83.24 1.61,-93.32 -2.81,-14 -28.38,-8.61 -39.6,-8.61l-93.68 0c-42.53,-0.02 -35.8,-8.93 -35.8,57.61 0,12.39 -3.97,36.51 3.63,44.62z"/>
  <path fill="#FE6591" d="M1771.37 1461.49c32.85,-32.61 11.01,-44.49 -19.49,-52.35 -26.2,-6.75 -66.03,-18.45 -84.38,6.8 -18.35,25.25 -13.92,57.58 20.86,62.49 19.49,2.75 21.66,-6.13 38.69,-13.18 14.71,-6.09 29.28,-10.98 44.32,-3.76z"/>
  <path fill="#FE6591" d="M1982.91 1461c19.82,-4.47 26.2,-3.9 45.33,3.74 16.68,6.67 19.82,16.06 38.15,13.94 35.5,-4.09 39.18,-36.24 22.55,-62.41 -16.66,-26.21 -59.26,-13.58 -84.2,-7.28 -39.26,9.92 -46.33,20.3 -21.83,52.01z"/>
  <path fill="#FDB5D0" d="M1439.9 1110.12c0.21,-10.35 14.6,-34.87 20.34,-43.26l43.68 -0.32c6.48,8.79 18.96,34.39 20.39,44.5 -30.34,4.28 -53.98,7.87 -84.41,-0.92zm-23.71 -55.33c-2.86,10.45 -1.38,58.14 -1.18,72.32l133.93 -0.53 -0.79 -71.54 -131.96 -0.25z"/>
  <path fill="#EC4172" d="M2218.53 1472.57l2.87 -7.73c12.72,2.86 25.13,8 38.85,8.08 19.57,0.11 25.54,-6.15 40.12,-7.88l3.19 7.98c-8.88,6.87 -16.55,8.03 -25.23,18.04 -9.87,11.38 -3.64,22.85 -9.85,32.86 -20.68,16.34 -16.15,-16.07 -20.82,-25.93 -9.71,-20.48 -20.62,-15.86 -29.13,-25.42zm77.37 -165.55c-22.38,2.6 -21.66,-15.23 -1.21,-12.73 3.58,6.76 4.47,4.75 1.21,12.73zm-56 -10.88c5.45,13.8 -9.79,13.52 -14.01,9.42 -7.14,-6.92 2.39,-16.21 14.01,-9.42zm158.84 169.44l0 -5.3c-88.58,-12.25 -34.75,137.92 -56.37,182.57 -15.87,32.8 -57.01,35.78 -73.11,4.61 -9.51,-18.39 -5.67,-88.95 -5.5,-113.35 4.5,-5.24 9.75,-4.17 11.51,-13.2 2.08,-10.7 -4.7,-28.62 31.86,-42.8 4,-9.2 -2.43,-5.14 3.22,-11.93 2.18,-2.62 6.24,-4.9 9.57,-8.88 31.37,-37.49 42.59,-108.5 20.92,-140.17 -4.54,-6.64 -13,-13.3 -20.87,-15.98 -17.52,-5.98 -10.97,2.73 -22.34,-11.73 -9.47,-1.09 -11.02,-1.4 -19.58,1.81 -3.46,8.76 -4.88,18.69 6.88,21.16 15.1,3.17 13.52,-2.6 20.1,-9.36 68.16,4.73 42.35,132.37 1.58,159.25 -19.43,-7.53 -8.36,4.64 -40.78,5.61 -20.78,0.62 -25.01,-2.51 -43.28,-9.65l-7.25 4.76c-42.87,-29.75 -64.79,-159.95 1.66,-159.57 8.4,7.82 10.58,13.68 25.34,7.01 10.17,-12.48 0.07,-25.24 -14.45,-21.33 -9.02,2.43 -3.56,5.58 -12.29,8.81 -4.36,1.61 -9.99,1.59 -16.28,4.12 -49.99,20.13 -29.73,130.42 8.86,161.99 8.06,6.59 3.53,3.78 6.31,14.15 12.34,6.44 22.07,7.47 28.81,21.96 4.49,9.64 1.14,12.86 3.08,21.38 2.02,8.85 6.08,6.35 11.61,13.09 4.9,32.66 -6.92,88.46 7.34,116.51 15.57,30.62 60.63,30.7 79.31,-0.27 27.2,-45.09 -29.86,-197.35 54.14,-185.27z"/>
  <path fill="#FE6591" d="M1617.43 2019.88l1.78 8.38c-13.09,0.07 -11.06,-7.94 -1.78,-8.38zm27.98 -1.09c5.41,-3.6 20.72,-3.64 26.06,0 -5.36,3.69 -20.51,3.71 -26.06,0zm-34.56 -12.11c8.2,-5.47 7.3,-2.73 8.41,4.05 -6.16,3.43 -7.69,4.33 -8.41,-4.05zm-26.53 -24.78c-30.63,8.28 -43.5,17.58 -45.05,51.29l151.64 0.1c-0.76,-30.66 -15.41,-46.9 -45.63,-51.1 -22.47,18.63 -33.59,23.45 -60.96,-0.29z"/>
  <path fill="#EC4172" d="M1848.07 1797.8c9.39,-0.78 59,40.96 69.03,49l51.54 40.01c7.45,5.5 14.58,8.27 11.01,16.48 -8.95,1.78 -26.5,-16.56 -33.98,-22.02l-86.15 -66.63c-7.86,-6.41 -16.17,-7.41 -11.45,-16.84zm68.04 242.09l138.46 0.66c19.77,0 38.31,3.13 46.83,-5.46l-184.04 -0.45 -2.79 -2c10.84,-7.32 78.79,-23.49 95.6,-27.99l1.18 -31.81 -10.64 -3.66 -0.4 -32.61 -77.3 -59.13c-12.87,-10.62 -72.91,-51.97 -74.56,-64.11 17.83,9.96 50.3,38.15 68.24,52.13 10.91,8.5 21.87,17.76 33.22,25.82 31.86,22.64 8.87,11.33 32.43,18.39l7.58 3.27 52.58 -0.19c0.87,-0.22 1.22,-0.31 2.05,-0.59l-53.12 -4.39 -5.38 -2.5c2.83,-8.25 -0.55,-2.33 4.98,-6.06 9.77,-3.36 49.45,1.49 65.92,-2 -10.95,-10.22 -40.06,-1.51 -55.22,-4.37 -0.18,-9.83 -1.94,-21.06 3.39,-29.55 8.77,-5 49.64,8.94 55.57,17.75l2.71 1.54 1.97 -5.11c-9.49,-10.49 -17.49,-10.34 -30.27,-14.29 -15.51,-4.8 -18.08,-9.59 -34.56,-4.4 -6.17,16.38 -1.56,21.15 -4.76,33.87 -16.05,1.69 -16.64,-4.39 -38.54,-20.92l-72.24 -56.1c-12.42,-9.15 -24.43,-25.79 -41.28,-21.99 -3.35,10.42 0.33,28 0.55,28.36 2.25,3.84 149.6,115.43 151.03,119.4 0.2,19.85 -5.33,26.24 10.81,36.77l0.21 22.8c-15.98,2.52 -35.87,8.92 -51.7,13.42 -13.53,3.84 -42.64,5.27 -45.15,20.9l6.64 4.6z"/>
  <path fill="white" d="M2299.06 982.07c-13.68,-8.49 -13.23,-29.39 -10.71,-43.25 2.29,-12.62 6.46,-34.02 13.03,-45.16l41.03 25.3c-3.63,18.91 -21.89,15.76 -43.35,63.11zm-45.87 -193.71c-46.8,4.27 -31.71,-13.25 -30.49,-46.49 0.46,-12.54 -6.56,-24.55 5.87,-33.7 7.92,-5.83 23.96,-8.27 33.67,-7.07 31.49,3.9 34.01,24.62 32.17,50.99 -3.03,43.32 7.08,47.31 18.9,63.34 -13.64,6.18 -22.73,9.86 -37.57,6.36 -7.78,-1.84 -3.77,-3.62 -9.17,-0.46 10.44,10.55 23.87,1.17 38.75,13.96 9.2,7.9 18.59,16.16 27.04,23.92 61.7,56.63 61.03,52.33 -0.49,111.13 -15.04,14.37 -15.94,10.23 -9.77,31.59 3.79,13.15 7.91,32.49 -2.12,41.22 -7.21,-63.29 -26.07,-45.49 -12.53,-70.67 3.76,-6.99 14.8,-22.39 19.76,-27.17 31.13,-29.94 27.32,-23.37 -28.26,-59.09 -6.16,10.46 -11.93,36.29 -14.3,49.11 -3.9,21.17 -3.63,32.39 9.58,49.61 38.19,49.77 11.79,89.25 23.05,101.51 2.71,-9.07 1.63,-19.43 2.32,-29 0.89,-12.22 4.96,-8.99 8.78,-19.28 6.41,-17.26 -2.93,-35.09 -5.81,-51.88 5.67,-8.13 28.47,-30.65 36.99,-39.15 13.06,-13 34.02,-25.69 18.5,-48.2 -3.82,-5.54 -31.15,-32.01 -37.46,-37.79 -9.32,-8.53 -34.13,-27.99 -40.49,-36.59 7.9,-1.86 17.56,-5 20.13,-12.86 -13.36,-6.66 -14.61,-7.15 -19.06,-23.26 -9.48,-34.34 14.78,-83.39 -36.93,-91.39 -10.93,-1.69 -26.98,0.55 -36.15,6.63 -13.08,8.66 -11.14,17.89 -9.86,32.12 2.17,24.05 -17.39,54.71 20.4,58.22 2.51,52.99 -22.91,51.25 -57.32,77.91 -2.84,22.22 3.22,29.44 23.28,35.51 -19.9,20.02 -44.84,46.91 -47.3,79.41 -1.28,16.95 3.4,34.66 14.41,47.29 14.92,17.13 26.91,13.24 44.11,19.35 1.2,8.57 -2.06,28.45 4.72,33.75l-1.08 -37.73c-16.36,-5.97 -31.88,-0.83 -45.86,-19.33 -44.52,-58.94 39.73,-122.79 41.5,-127.05 -20.89,-1.97 -32.16,-2.9 -29.77,-29.05 14.15,-8.49 29.07,-16.77 40.15,-28.47 21.84,-23.06 15.81,-19.53 17.8,-50.78 9.93,-4.21 5.14,1.48 9.91,-6.47z"/>
  <path fill="white" d="M1584.32 1981.9c27.37,23.74 38.49,18.92 60.96,0.29 30.22,4.2 44.87,20.44 45.63,51.1l-151.64 -0.1c1.55,-33.71 14.42,-43.01 45.05,-51.29zm5.42 -2.41c10.9,-8.8 6.21,-7.43 10.69,-18.33 14.62,4.59 16.48,3.07 30.51,0.23 1.04,14.07 -0.6,10.57 9.33,18.56 -6.04,9.13 -14.18,13.02 -25.58,12.9 -5.2,-0.06 -10.54,-1.42 -15.1,-3.75 -6.31,-3.23 -7.35,-4.63 -9.85,-9.61zm-13.63 -54.38c2.39,-5.77 5.74,-6.75 9.82,-13.44 11.12,0.78 19.66,-1.43 29.49,-6.16 8.8,-4.24 12.06,-11.89 17.36,-18.39 12.64,9.47 11.25,23.82 15.03,29.49 4.57,6.83 4.69,-2.01 6.19,10.86 -6.08,7.36 -4.08,0.52 -9.11,7.37 -2.7,3.67 -7.99,25.68 -30.19,25.41 -9.9,-0.13 -18.12,-6.09 -23.42,-13.79 -2.3,-3.34 -4.57,-10.12 -6.15,-12.17 -4.75,-6.16 -2.77,0.42 -9.02,-9.18zm17.64 41.86c-10.23,0.52 -17.68,0.55 -25.35,-5.46 -3.39,-17.26 0.4,-67.21 12.29,-80.29l6.99 9.69c-4.43,8.83 -4.18,10.88 -7.65,19.8 -3.18,8.19 -11.76,9.37 -7.01,19.21 1.95,4.02 24.5,19.78 20.73,37.05zm57.66 -84.97c6.99,18.34 7.43,14.55 8.94,36.25 0.9,13.05 3.57,31.51 1.51,43.83 -8.74,5.78 -15.19,5.57 -25.81,4.82 -1.54,-12.78 1.24,-9.74 7.2,-19.3 1.57,-2.52 3.82,-7.9 4.93,-9.31 4.37,-5.56 4.5,-1.56 7.89,-6.55 6.44,-9.49 -2.77,-14.09 -5.64,-20.27 -3.48,-7.49 -2.48,-12.15 -8.58,-21.29 6.45,-4.68 3.59,-5.07 9.56,-8.18zm-66.17 25.98c6.84,-24.39 16.71,-25.07 40.86,-22.43 1.33,17.38 -27.62,22.34 -40.86,22.43zm-7.27 -52.05c33.1,-7.98 41.64,-6.17 74.66,-0.19l-9.17 28.81c-27.15,-5.15 -28.65,-4.06 -56.17,-0.11l-9.32 -28.51zm-4.38 -2.81l5.52 23.15c-15.66,21.12 -12.63,30.13 -14.31,55.51 -2.33,35.23 -7.51,34.52 26.79,40.32 -14.54,16.79 -59.46,5.46 -56.42,65.17l159.82 0.24c1.82,-61.83 -43.03,-50.06 -56.08,-65.62 34.63,-4 28.61,-3.53 25.72,-51.8 -0.84,-14.03 -0.01,-22.9 -7.65,-35.24 -10.87,-17.55 -1.77,-11.88 -0.4,-30.45 -22.3,-13.41 -58.94,-7.77 -82.99,-1.28z"/>
  <path fill="#FE6591" d="M1792.78 1403.77c14.32,9.36 65.99,18.47 84.61,18.84 18.95,0.39 69.43,-10.35 85.54,-18.84 -12.37,-12.06 -64.61,-21.36 -83.5,-21.75 -20.87,-0.42 -70.83,9.32 -86.65,21.75z"/>
  <path fill="#FE6591" d="M2218.68 1000.2c-5.96,-0.71 -4.97,-0.77 -7.43,-5.91 5.95,1.37 5.39,0.05 7.43,5.91zm17.51 -44.2l-4.38 9.5c4.82,5.12 11.09,11.91 12.26,18.3 -7.99,-2.46 -9.77,-9.1 -15.81,-15.79 -9.86,1.7 -10.53,5.71 -18.06,11.07 -8.84,6.3 -13.31,2.21 -16.85,9.25 9.53,6.65 23.04,-6.13 32.28,-10.34 3.98,5.05 11.22,13.12 10.63,18.88 -4.7,0.08 -7.29,-7.48 -10.59,-12.71 -16.62,3.15 -38.17,20.2 -25.72,39.99 4.85,7.7 15.93,11.21 24.26,7.6 9.19,-3.99 8.55,-14.37 13,-21.7 7.72,-12.72 32.11,-18.56 25.22,-45.87 -3.91,-15.49 -20.47,-34.22 -36.95,-32.8 -12.42,11 -7.96,22.6 -14.1,33.39 -10.34,-7.43 -9.36,-8.67 -17.02,-16.06 -6.03,5.81 -6.56,8.26 -6.61,17.78l7.74 -8 11.81 16.11 28.89 -18.6z"/>
  <path fill="#FE6591" d="M1988.98 1464.06c-27.19,15.13 17.67,85.13 56.38,56.82 42.42,-31.01 -35.16,-68.64 -56.38,-56.82z"/>
  <path fill="#FE6591" d="M1743.79 1464.59c-15.43,4.39 -35.49,9.41 -42.6,25.94 -9.32,21.62 11.09,36.58 31.59,35.47 41.3,-2.22 64.72,-76.7 11.01,-61.41z"/>
  <path fill="#FE6591" d="M1673.75 856.34c13.64,-5.91 23.31,-33.85 23.69,-49.23 0.52,-20.92 -8.13,-38.72 -22.2,-52.31 -30.85,11.67 -32.19,80.39 -1.49,101.54z"/>
  <path fill="white" d="M2074.85 1696.3c2.9,3.53 2.13,3.26 9.97,5.21 41.62,10.35 40.9,43.17 54.67,53.68l19.39 -10.43c-3.4,-10.11 -51.02,-92.2 -56.37,-96.29l-27.66 47.83z"/>
  <path fill="#FDB5D0" d="M1410.1 1131.73c-0.47,-15.89 -2.04,-69.46 1.25,-81.74l142.39 0.21 0.12 81.89 -143.76 -0.36zm-6.91 5.26l156.57 0.64c4.03,-7.43 3.75,-82.75 0.88,-93.1l-157.42 -0.86c-2.67,11.58 -2.64,82.19 -0.03,93.32z"/>
  <path fill="#FE6591" d="M1604.97 1942.81c10.18,1.58 10.03,1.23 19.72,0.34 -2.28,4.4 -2.8,5.52 -9.86,5.5 -8.77,-0.03 -8.01,-1.28 -9.86,-5.84zm-1.1 -20.26c-6.74,0.87 -1.94,2.23 -7.47,-1.52 0.69,-7.84 -0.19,-6.3 8.08,-5.53l-0.61 7.05zm30.35 -3.55c-3.24,6.74 -1.62,4.78 -9.01,3.45l0.59 -6.38c6.33,-2.04 5.01,-4.04 8.42,2.93zm-58.11 6.11c6.25,9.6 4.27,3.02 9.02,9.18 1.58,2.05 3.85,8.83 6.15,12.17 5.3,7.7 13.52,13.66 23.42,13.79 22.2,0.27 27.49,-21.74 30.19,-25.41 5.03,-6.85 3.03,-0.01 9.11,-7.37 -1.5,-12.87 -1.62,-4.03 -6.19,-10.86 -3.78,-5.67 -2.39,-20.02 -15.03,-29.49 -5.3,6.5 -8.56,14.15 -17.36,18.39 -9.83,4.73 -18.37,6.94 -29.49,6.16 -4.08,6.69 -7.43,7.67 -9.82,13.44z"/>
  <path fill="#FDB5D0" d="M1966.29 1077.93c16.46,-42.65 -56.7,-9.94 -70.39,32.59 -9.65,29.95 26.95,12.61 37.58,5.13 10.14,-7.13 28.15,-25.63 32.81,-37.72z"/>
  <path fill="#EC4172" d="M2093.78 1002.7c-7.67,-11.68 -8,-20.24 -19.99,-33 -4.35,-11.1 -38.74,-35.16 -55.8,-40.63 -68,-21.81 -134.71,8.65 -160.88,71.73 -2.88,6.94 -4.12,11.37 -5.75,18.6l-2.58 15.74c1.18,12.37 -2.14,-6.9 0.7,3.27l1.44 2.88c5.13,-6.99 5.5,-24.09 9.11,-33.87 10.89,-29.59 34.01,-56.11 62.86,-69.27 45.64,-20.82 107.21,-10.89 134.31,21.11 4.62,5.46 7.04,5.83 10.54,9.77 26.28,29.55 36.29,79.15 22.5,118.35 -9.18,26.08 -16.16,33.69 -35.23,52.07 -19.78,19.06 -34.76,21.73 -59.99,30.12 4.16,4.7 -1.2,2.65 6.53,3.03 8,0.4 37.35,-13.69 45.1,-19.02 29.43,-20.24 49.6,-53.54 53.85,-88.69 3.42,-28.32 -1.22,-36.53 -6.72,-62.19z"/>
  <path fill="white" d="M2278.17 1888.41c7.42,0.64 13.24,0.4 13.46,9.1 -8.51,6.96 -14.1,0.32 -13.46,-9.1zm-68.36 8.07c2.5,-7.43 6.1,-7.64 13.76,-7.92 -0.17,9.83 -6.32,16.2 -13.76,7.92zm39.71 8.62l-5.26 -26.04 16.4 -0.11c-2.33,8.81 -3.73,20.35 -11.14,26.15zm47.06 -15.15c-6.14,-2.4 -17.5,-5.54 -21.9,-7.47 2,-22.14 50.49,-9.92 21.9,7.47zm-93.4 0.76c-24.05,-24.36 23.3,-25.55 23.74,-9.19 -1.72,1.22 -21.44,8.83 -23.74,9.19zm33.56 -18.55c7.47,-4.87 21.02,-4.81 27.78,0.63 -9.12,3.11 -19.58,4.19 -27.78,-0.63zm-7.81 22.85c2.31,9.87 8.34,17.31 8.13,25.42 -0.23,9.28 -1.93,21.31 2.83,28.99 4.2,-5.91 1.06,-9.39 0.8,-18.2 -0.25,-8.32 2.42,-12.09 -1,-20.2 -7.55,-17.92 -5.8,-15.48 -7.88,-34.46 15.01,2.04 7.16,11.76 11.78,24.71 4.69,13.13 5.82,16.01 2.56,29.75l9.43 0.08c-5.42,-18.44 7.94,-50.77 14.77,-54.63 -3.56,17.76 -1.28,16.12 -8.37,34.02 -2.28,5.77 -1.66,17.72 -2.11,29.01 -0.49,12.69 -1.63,5.63 3.17,10.43 1.8,-12.64 1.62,-17.04 1.51,-29.19 -0.09,-9.61 5.74,-15.7 8.47,-25.85 16.92,22.22 23.8,0.93 25.42,-0.8 3.66,-3.93 7.75,-3.35 10.15,-8.61 4.73,-10.37 -3.72,-18.36 -13.77,-18.94 -12.96,-0.76 -14.2,5.42 -27.89,1.03 -11.41,-3.66 -18.61,-4.19 -30.14,-0.4 -16.85,5.52 -12.6,-0.29 -27.7,-0.6 -9.63,-0.2 -18.44,4.67 -17.21,15.37 0.59,5.12 11.19,14.6 15.55,18.77 9.25,8.86 15.34,1.6 21.5,-5.7z"/>
  <path fill="#FE6591" d="M2299.06 982.07c21.46,-47.35 39.72,-44.2 43.35,-63.11l-41.03 -25.3c-6.57,11.14 -10.74,32.54 -13.03,45.16 -2.52,13.86 -2.97,34.76 10.71,43.25z"/>
  <path fill="#EC4172" d="M1416.19 1054.79l131.96 0.25 0.79 71.54 -133.93 0.53c-0.2,-14.18 -1.68,-61.87 1.18,-72.32zm-6.09 76.94l143.76 0.36 -0.12 -81.89 -142.39 -0.21c-3.29,12.28 -1.72,65.85 -1.25,81.74z"/>
  <path fill="#EC4172" d="M1628.03 1610.33l2.5 -2.59c-1.73,-5.54 0.7,-0.09 -4.81,-3.58 -10.81,12.78 -107.12,109.32 -114.89,112.53 -9.05,-3.23 -49.12,-43.28 -52.96,-52.25 -0.32,-6.8 115.91,-120.87 126.91,-130.25l2.26 -4.2 -4.79 0.42c-9.82,5.07 -96.97,95.87 -118.8,117.18 -20.02,19.55 -10.47,22.18 21.97,54.46 9.5,9.45 14.84,20.05 29.67,19.23l112.94 -110.95z"/>
  <path fill="#FDB5D0" d="M2300.37 1465.04c-14.58,1.73 -20.55,7.99 -40.12,7.88 -13.72,-0.08 -26.13,-5.22 -38.85,-8.08l-2.87 7.73c8.51,9.56 19.42,4.94 29.13,25.42 4.67,9.86 0.14,42.27 20.82,25.93 6.21,-10.01 -0.02,-21.48 9.85,-32.86 8.68,-10.01 16.35,-11.17 25.23,-18.04l-3.19 -7.98z"/>
  <path fill="#EC4172" d="M1966.29 1077.93c-4.66,12.09 -22.67,30.59 -32.81,37.72 -10.63,7.48 -47.23,24.82 -37.58,-5.13 13.69,-42.53 86.85,-75.24 70.39,-32.59zm-172.7 136.83l-1.94 7.7c4.34,-3.48 2.22,-0.04 6.24,-5.95 8.83,-32.71 37.87,-11.27 57.11,-28.61 15.8,-14.24 6.32,-35.96 31.87,-51.56 19.06,-11.63 35.1,11.83 78.01,-46.26 8.46,-11.44 9.69,-18.34 7.57,-31.95 -19.91,-9.92 -44.02,2.31 -58.09,16.06 -19.56,19.11 -27,33.57 -22.39,54.85 -32.28,9.5 -25.18,35.42 -37.89,53.9 -11.31,16.45 -55.37,-3.45 -60.49,31.82z"/>
  <path fill="white" d="M2207.3 974.6l-11.81 -16.11 -7.74 8c0.05,-9.52 0.58,-11.97 6.61,-17.78 7.66,7.39 6.68,8.63 17.02,16.06 6.14,-10.79 1.68,-22.39 14.1,-33.39 16.48,-1.42 33.04,17.31 36.95,32.8 6.89,27.31 -17.5,33.15 -25.22,45.87 -4.45,7.33 -3.81,17.71 -13,21.7 -8.33,3.61 -19.41,0.1 -24.26,-7.6 -12.45,-19.79 9.1,-36.84 25.72,-39.99 3.3,5.23 5.89,12.79 10.59,12.71 0.59,-5.76 -6.65,-13.83 -10.63,-18.88 -9.24,4.21 -22.75,16.99 -32.28,10.34 3.54,-7.04 8.01,-2.95 16.85,-9.25 7.53,-5.36 8.2,-9.37 18.06,-11.07 6.04,6.69 7.82,13.33 15.81,15.79 -1.17,-6.39 -7.44,-13.18 -12.26,-18.3l4.38 -9.5 -28.89 18.6zm-23.36 -5.84c9.86,3.7 5.46,0.52 12.13,-1.93 3.05,4.88 5.06,6.39 6.92,11.62 -3.77,1.31 -26.61,3.75 -5.81,18.21 -18.86,37.25 29.8,56.2 40.04,25.68 4.83,-14.39 1.63,-10.6 13.57,-19.05 36.43,-25.77 4.43,-78.83 -25.23,-76.16 -16.21,8.66 -10.14,20.14 -18.36,30.26l-11.92 -13.84c-10.24,4.66 -13.96,14.59 -11.34,25.21z"/>
  <path fill="#FE6591" d="M1624.32 1866.05c-3.52,2.21 -3.38,1.14 -5.87,3.51l-3.76 5.28c-1.25,-2.59 -1.7,-4.02 -3.16,-5.52l-5.88 -3.57c8.79,-5.1 4.11,-0.52 9.04,-9.16l9.63 9.46zm-46.35 -10.12l9.32 28.51c27.52,-3.95 29.02,-5.04 56.17,0.11l9.17 -28.81c-33.02,-5.98 -41.56,-7.79 -74.66,0.19z"/>
  <path fill="#FDB5D0" d="M1455.05 1094.22c1.98,-0.76 51.95,-0.75 53.83,0 -3.36,4.61 -3.59,3.9 -11.66,4.79l-29.69 0.29c-14.27,-1.48 -10.78,-2.93 -12.48,-5.08zm11.06 -12.22c3.19,-2.86 -1.52,-2.55 7.88,-2.17 21.4,0.87 19.1,-2.71 24.5,2.75 -9.81,4.11 -23.34,5.17 -32.38,-0.58zm-19.76 24.28c23.32,5.7 47.84,5.58 70.58,0.64 0.97,-5.32 -12.15,-30.63 -16.35,-35.53l-39.07 0.39 -15.16 34.5z"/>
  <path fill="#FDB5D0" d="M1917.1 1846.8c-10.03,-8.04 -59.64,-49.78 -69.03,-49 -4.72,9.43 3.59,10.43 11.45,16.84l86.15 66.63c7.48,5.46 25.03,23.8 33.98,22.02 3.57,-8.21 -3.56,-10.98 -11.01,-16.48l-51.54 -40.01z"/>
  <path fill="#EC4172" d="M1914.05 1055.66c3.9,-8.32 1.86,-23 9.85,-37.16 16.81,-29.77 60.8,-42.64 93.87,-9.64 27.49,27.43 17.9,76.15 -15.71,91.84 -17.3,8.07 -35.55,5.28 -40.9,7.78 8.04,8.38 30.01,3.07 40.48,-1.96 11.72,-5.63 20.57,-13.04 27.41,-23.64 15.6,-24.17 11.98,-55.67 -6.57,-76.68 -30.23,-34.23 -93.07,-29.47 -109.23,25.96 -2.66,9.1 -5.02,17.77 0.8,23.5z"/>
  <path fill="#EC4172" d="M1822.81 1108.28c-1.87,-22.29 45.46,-59.3 54.59,-40.93 4.32,8.7 -31.94,53.96 -54.59,40.93zm-3.42 4.03c-8.11,6.9 -13.35,6.65 -18.28,17.73 -4.54,10.2 -3.49,19.17 -12.84,25.68 -9.55,6.63 -20.71,1.99 -30.23,6.26 -7.74,3.48 -14.52,17.02 -10.98,23.91 11.64,-10.31 0.51,-18.98 24.46,-21.06 17.02,-1.47 24.72,-2.88 30.15,-20.32 13.22,-42.53 30.58,-17.11 56.89,-40.61 37.91,-33.85 27.01,-51.28 1.76,-45.09 -16.5,4.05 -50.38,35.14 -40.93,53.5z"/>
  <path fill="#FDB5D0" d="M2001.73 1892.84l56.3 0.12c2.92,-7.73 3.29,-4.08 2.66,-11.92 -5.93,-8.81 -46.8,-22.75 -55.57,-17.75 -5.33,8.49 -3.57,19.72 -3.39,29.55z"/>
  <path fill="#FDB5D0" d="M1977.59 1142.96c-21.54,-18.87 -57.05,25.6 -56.12,36.81 1.97,23.47 52.77,-14.26 56.12,-36.81z"/>
  <path fill="#FDB5D0" d="M1822.81 1108.28c22.65,13.03 58.91,-32.23 54.59,-40.93 -9.13,-18.37 -56.46,18.64 -54.59,40.93z"/>
  <path fill="white" d="M2347.83 2046.33c8.15,-9.55 9.16,-59.21 9.44,-74.37 0.44,-25.06 -2.79,-51.29 -9.46,-75.45 -14.79,-53.56 -36.93,-71.4 -32.79,-116.09 1.71,-18.49 1.5,-12.2 -1.74,-13.71 -7.73,17.46 -1.2,54.32 7.81,71.13 21.11,39.35 32.82,91.63 32.04,136.15 -0.19,11.05 -7.63,68.35 -5.3,72.34z"/>
  <path fill="white" d="M2190.21 1772.87c-0.55,-2.54 -0.5,-1.92 -1.56,-4.29l-1.71 -2.33c-3.46,7.32 3.47,42.66 -9.86,69.55 -38.85,78.38 -35.97,127.61 -25.6,210.57 4.29,-4.71 5.24,6.23 1.13,-20.03 -6.71,-42.84 -5.23,-88.14 5.52,-129.88 5.89,-22.9 13.29,-39.47 23.34,-60.26 7.9,-16.34 10.6,-35.58 9.62,-53.74 -0.12,-2.29 -0.43,-7.53 -0.88,-9.59z"/>
  <path fill="#FDB5D0" d="M1537.77 1248.15c7.47,2.68 12.49,1.66 20.29,1.31l-8.25 -54.49c-17.61,1.17 -21.39,0.85 -18.9,19.77 1.4,10.72 1.21,24.52 6.86,33.41z"/>
  <path fill="#EC4172" d="M1977.59 1142.96c-3.35,22.55 -54.15,60.28 -56.12,36.81 -0.93,-11.21 34.58,-55.68 56.12,-36.81zm-82.68 78.07l5.55 -0.21c9.21,-40.29 26.21,-22.4 47.94,-35.11 12.64,-7.39 39.15,-31.68 31.89,-48.05 -13.04,-19.59 -69.49,17.77 -62.35,49.96 -15.95,10.99 -18.31,11.9 -23.03,33.41z"/>
  <path fill="#FE6591" d="M1614.69 1992.85c11.4,0.12 19.54,-3.77 25.58,-12.9 -9.93,-7.99 -8.29,-4.49 -9.33,-18.56 -14.03,2.84 -15.89,4.36 -30.51,-0.23 -4.48,10.9 0.21,9.53 -10.69,18.33 2.5,4.98 3.54,6.38 9.85,9.61 4.56,2.33 9.9,3.69 15.1,3.75z"/>
  <path fill="#FE6591" d="M1593.75 1966.97c3.77,-17.27 -18.78,-33.03 -20.73,-37.05 -4.75,-9.84 3.83,-11.02 7.01,-19.21 3.47,-8.92 3.22,-10.97 7.65,-19.8l-6.99 -9.69c-11.89,13.08 -15.68,63.03 -12.29,80.29 7.67,6.01 15.12,5.98 25.35,5.46z"/>
  <path fill="#FE6591" d="M1661.86 1962.08c2.06,-12.32 -0.61,-30.78 -1.51,-43.83 -1.51,-21.7 -1.95,-17.91 -8.94,-36.25 -5.97,3.11 -3.11,3.5 -9.56,8.18 6.1,9.14 5.1,13.8 8.58,21.29 2.87,6.18 12.08,10.78 5.64,20.27 -3.39,4.99 -3.52,0.99 -7.89,6.55 -1.11,1.41 -3.36,6.79 -4.93,9.31 -5.96,9.56 -8.74,6.52 -7.2,19.3 10.62,0.75 17.07,0.96 25.81,-4.82z"/>
  <path fill="#EC4172" d="M1461.51 1071.78l39.07 -0.39c4.2,4.9 17.32,30.21 16.35,35.53 -22.74,4.94 -47.26,5.06 -70.58,-0.64l15.16 -34.5zm-21.61 38.34c30.43,8.79 54.07,5.2 84.41,0.92 -1.43,-10.11 -13.91,-35.71 -20.39,-44.5l-43.68 0.32c-5.74,8.39 -20.13,32.91 -20.34,43.26z"/>
  <path fill="#FDB5D0" d="M1631.15 1088.42c-8.64,1.03 -7.32,-12.41 -21.62,-3.3l-7.25 3.77c1.12,-14.79 15.01,-13.81 26.16,-8.46l2.71 7.99zm0 0c3.95,-10.39 -16.57,-19.75 -30.63,-4.52 2.58,14.18 8.05,7.29 8.28,24.45 0.12,8.58 -3.61,25.66 5.28,28.89 15.98,5.8 7.8,-26.96 10.26,-36.83 2.09,-8.37 3.6,-2.77 6.81,-11.99z"/>
  <path fill="#EC4172" d="M1602.91 1564.57l1.51 -3.81 -4.25 -0.33c-7.71,5.31 -22.54,21.56 -30.04,28.89 -10.08,9.86 -19.75,19.57 -29.62,29.51 -11.29,11.36 -41.69,37.02 -41.05,47.41 0.54,8.68 11.82,14.43 17,4.39 -7.91,-4.36 -1.33,3.86 -11.53,-2.32 -0.51,-10.93 13.85,-19.88 21.14,-27.34l76.84 -76.4z"/>
  <path fill="#FDB5D0" d="M2084.45 2014.5c0.26,-6.16 -19.6,-38.21 -25.7,-44.77 -4.1,7.74 -3.04,3.87 -9.41,8.53l-0.06 19.57 35.17 16.67z"/>
  <path fill="#EC4172" d="M1510.27 1200.12c-5.27,3.7 -47.82,3.33 -56.87,0.72 2.77,-1.42 49.65,-1.36 56.87,-0.72zm-61.83 1.92c7.57,8.84 60.85,5.78 66.55,2.3 1,-12.79 -4.59,-9.5 -32.67,-9.45 -10,0.02 -32.25,-4.69 -33.88,7.15z"/>
  <path fill="#FE6591" d="M1585.24 1907.98c13.24,-0.09 42.19,-5.05 40.86,-22.43 -24.15,-2.64 -34.02,-1.96 -40.86,22.43z"/>
  <path fill="white" d="M2227.98 1951.74c13.2,19.1 22.78,4.88 22.53,36.49 -0.1,13.71 -2.84,47.4 1.6,57.77 2.21,-3.15 1.21,-0.19 2.34,-4.85l0.68 -68.44c6.45,-6.96 16.95,-13.55 19.85,-21.44 -7.39,1.99 -7.86,2.73 -12.83,8.3 -5.11,5.73 -4.02,6.19 -10.09,8.3 -7.81,-5.59 -12.54,-14.22 -24.08,-16.13z"/>
  <path fill="#FDB5D0" d="M1991.43 1907.77l58.68 0.62 3.52 -8.89 -62.6 -0.29c-5.53,3.73 -2.15,-2.19 -4.98,6.06l5.38 2.5z"/>
  <path fill="white" d="M2128.27 2086.85l-7.73 -13.24c-7.37,3.6 -10.03,8.71 -17.26,13.24l24.99 0z"/>
  <polygon fill="#FDB5D0" points="1466.93,1159.39 1495.93,1160.35 1497.2,1142.69 1467.63,1142.71 "/>
  <path fill="#EC4172" d="M2054.03 1965.85l-1.19 4.56 -8.57 3.1 -0.21 27.77 41.64 21.03c4.58,-4.46 4.83,3.57 3.26,-4.75l-4.51 -3.06 -35.17 -16.67 0.06 -19.57c6.37,-4.66 5.31,-0.79 9.41,-8.53l-0.58 -5.56 -4.14 1.68z"/>
  <path fill="#EC4172" d="M1520.02 1665.24c7.67,0.1 24.26,-20.2 30.39,-26.38 8.54,-8.6 25.34,-21.22 28.66,-32.37 -9.52,3.45 -58.42,51.83 -59.05,58.75z"/>
  <path fill="#FE6591" d="M2203.18 1890.71c2.3,-0.36 22.02,-7.97 23.74,-9.19 -0.44,-16.36 -47.79,-15.17 -23.74,9.19z"/>
  <path fill="#FE6591" d="M2296.58 1889.95c28.59,-17.39 -19.9,-29.61 -21.9,-7.47 4.4,1.93 15.76,5.07 21.9,7.47z"/>
  <path fill="#EC4172" d="M1476.23 1264.98c-12.41,-12.68 0.2,-23 10.59,-18.34 9.22,4.15 10.58,21.68 -10.59,18.34zm17.77 2.05c11.87,-20.42 -8.6,-33.17 -22.69,-23.07 -11.92,8.56 -5.49,35.47 22.69,23.07z"/>
  <path fill="#FDB5D0" d="M1476.23 1264.98c21.17,3.34 19.81,-14.19 10.59,-18.34 -10.39,-4.66 -23,5.66 -10.59,18.34z"/>
  <polygon fill="white" points="2398.74,2086.85 2398.74,2064.35 2384.45,2086.85 "/>
  <path fill="#EC4172" d="M1455.05 1094.22c1.7,2.15 -1.79,3.6 12.48,5.08l29.69 -0.29c8.07,-0.89 8.3,-0.18 11.66,-4.79 -1.88,-0.75 -51.85,-0.76 -53.83,0z"/>
  <path fill="#FE6591" d="M2249.52 1905.1c7.41,-5.8 8.81,-17.34 11.14,-26.15l-16.4 0.11 5.26 26.04z"/>
  <path fill="#EC4172" d="M1416.7 1229.86c0,14.58 13.59,13.19 21.18,6.87 2.91,-13.6 -13.72,-10.02 -21.18,-6.87z"/>
  <path fill="#EC4172" d="M1417.94 1254.02c4.67,-4.88 8.21,-4.9 12.64,-0.95l-12.64 0.95zm-4.21 2.41c6.59,3.71 14.94,3.79 21.48,0.44l-0.89 -8.1c-9.39,-4.74 -22.18,-4.69 -20.59,7.66z"/>
  <polygon fill="white" points="2398.74,1793.17 2398.74,1766.7 2382.7,1766.33 "/>
  <path fill="#FDB5D0" d="M2239.9 1296.14c-11.62,-6.79 -21.15,2.5 -14.01,9.42 4.22,4.1 19.46,4.38 14.01,-9.42z"/>
  <path fill="#EC4172" d="M1423.05 1213.71l12.64 0.67c-1.6,2.05 0.51,3.21 -6.27,3.03 -10.91,-0.29 -4.05,-0.97 -6.37,-3.7zm-3.82 4.78c7.67,4.84 21.48,6.19 21.42,-7.02 -7.86,-4.69 -22.63,-6.52 -21.42,7.02z"/>
  <path fill="#FDB5D0" d="M2295.9 1307.02c3.26,-7.98 2.37,-5.97 -1.21,-12.73 -20.45,-2.5 -21.17,15.33 1.21,12.73z"/>
  <path fill="#EC4172" d="M1520.71 1616.47c4.71,4.92 3.86,2.37 -0.27,6.95l-4.47 -4.25 4.74 -2.7zm-9.21 5.24c5.5,7.12 6.83,7.92 15.72,4.16l0.33 -12.44c-9.77,-4.27 -14.88,-2.92 -16.05,8.28z"/>
  <path fill="#EC4172" d="M1528.3 1682.24l-1.33 5.65 -4.38 -4.42 5.71 -1.23zm2.19 -4.92c-12.99,-2.52 -15.97,5.34 -8.61,15.74l10.8 -2.48c2.11,-8.46 2.73,-5.91 -2.19,-13.26z"/>
  <path fill="#EC4172" d="M1546.31 1589.28c4.01,-3.01 3.6,-4.87 5.78,1.35 -6.44,7.01 -4.32,0.08 -5.78,-1.35zm8.74 -5.76c-13.3,-4.91 -18.07,8.6 -10.94,13.3 8.48,5.6 17.65,-2.92 10.94,-13.3z"/>
  <path fill="#EC4172" d="M1602.45 1613.62c-14.13,-0.69 -1.27,-13.75 0,0zm-10.25 2.12c5.89,4.45 7.76,3.86 14.91,1.01l-0.05 -11c-11.22,-7.46 -16.84,-1.09 -14.86,9.99z"/>
  <path fill="#EC4172" d="M1579.71 1563.78c-6.42,-2.2 -6.1,-3.66 -0.09,-6.41 4.16,4.15 4.76,1.47 0.09,6.41zm-7.24 -8.96l-2.6 7.66c9.82,11.76 19.47,6.75 15.99,-7.82 -6.23,-3.24 -6.65,-3.53 -13.39,0.16z"/>
  <path fill="#EC4172" d="M1552.03 1654.26c7.34,-5.34 3.69,-3.23 6.49,0.86 -3.67,7.93 -4.64,2.85 -6.49,-0.86zm9.29 7.73c2.93,-7.1 2.65,-6.5 0.57,-13.91l-10.39 -1.42c-8.36,11.24 -3.55,19.07 9.82,15.33z"/>
  <path fill="#EC4172" d="M1569.44 1636.8l4.09 5.6 -6.16 0.54 2.07 -6.14zm-6.56 10.22l14.15 0.83c3.56,-22.32 -17.8,-20.29 -14.15,-0.83z"/>
  <path fill="#EC4172" d="M1487.27 1648.15c6.03,-4.58 5.39,-3.88 6.29,3.02 -7.17,1.78 -3.93,3.4 -6.29,-3.02zm8.58 7.78c4.06,-5.69 3.54,-7.07 0.69,-13.89l-10.16 -1.17c-7.66,11.31 -2.9,19.6 9.47,15.06z"/>
  <path fill="#EC4172" d="M1494.53 1678.43c3.45,7.27 2.79,5.49 -4.01,6.22 0.12,-9.86 -1.99,-3.79 4.01,-6.22zm-6.11 10.36c10.87,2.35 15.7,-2.07 10.96,-12.89 -7.73,-4.31 -2.97,-3.05 -11.29,-1.46 -4.28,5.78 -4.16,8.57 0.33,14.35z"/>
  <path fill="#EC4172" d="M1512.42 1696.4l1.24 5.94 -5.43 -0.83c-0.46,-4.46 -0.04,-3.88 4.19,-5.11zm5.54 9.74c4.13,-24.9 -23.01,-15.31 -12.34,1.03l12.34 -1.03z"/>
  <path fill="#EC4172" d="M1585.95 1622.43c2.78,3.8 4.49,3.05 -1.4,6.13 -6.73,-4.56 -3.32,-4.31 1.4,-6.13zm-5.17 10.75l10.95 -0.76 0.68 -14.21 -11.68 -0.45c-5.63,7.04 -5.6,8.99 0.05,15.42z"/>
  <path fill="#EC4172" d="M1539.44 1666.55c7.95,3.86 5.09,1.06 2.17,6.91 -3.43,-1.93 -8.18,0.4 -2.17,-6.91zm-6.15 8.1c5.95,4.37 8.42,4.55 14.36,0.35 1.55,-8.2 2.72,-3.43 -1.35,-11.43 -10.99,-4.54 -15.28,0 -13.01,11.08z"/>
  <path fill="#EC4172" d="M1566.41 1577.55l-5.35 0.49c1.2,-6.7 5.96,-8.34 5.35,-0.49zm-7.81 4.55l12.78 1 0.01 -12.87c-11.24,-6.86 -19.28,2.1 -12.79,11.87z"/>
  <path fill="#EC4172" d="M1502.04 1633.89c5.95,-5.94 4.23,-3.15 6.13,1.97 -5.16,3.16 -4.2,4.05 -6.13,-1.97zm-4.87 -3.31c-0.26,7.06 -0.64,5.67 2.43,10.57l12.68 1.02 0.22 -13.09c-7.48,-3.52 -9.42,-3.79 -15.33,1.5z"/>
  <path fill="#EC4172" d="M1476.06 1660.66c2.53,3.33 6.32,0.25 -0.23,6.42 -7.72,-2.9 -3.69,-4.16 0.23,-6.42zm-7.87 7.65c6.14,5.9 9.65,5.48 15.02,-1.35 0.27,-6.84 0.2,-6.64 -4.77,-11.02 -9.81,0.43 -11.93,2.53 -10.25,12.37z"/>
  <path fill="#EC4172" d="M1611.08 1595.23c3.02,-2.18 3.88,-5.54 6,1.43 -6.17,6.5 -4.08,0.25 -6,-1.43zm10.97 4.84l0.05 -10.1 -10.69 -0.71 -5.22 3.52c0.14,9.88 1.68,10.5 10.96,11.59l4.9 -4.3z"/>
  <path fill="#EC4172" d="M1631.15 1088.42l-2.71 -7.99c-11.15,-5.35 -25.04,-6.33 -26.16,8.46l7.25 -3.77c14.3,-9.11 12.98,4.33 21.62,3.3z"/>
  <path fill="#EC4172" d="M1535.12 1601.7c2.49,3.15 6.4,0.31 -0.24,6.15 -6.5,-2.52 -4.87,-3.9 0.24,-6.15zm-7.53 9.3c10.06,4.03 17.9,0.45 13.4,-11.36 -9.96,-6.88 -16.22,1.19 -13.4,11.36z"/>
  <path fill="#EC4172" d="M1465.32 1181.79c6.68,-3.83 3.24,-0.72 5.07,0.1 -2.67,2.92 -2.27,4.61 -5.07,-0.1zm-4.7 -5.51c-0.85,7.66 -1.98,5.15 1.61,11.47 9.15,3.87 14.31,0.3 11.86,-9.99 -4.92,-3.15 -7.82,-3.67 -13.47,-1.48z"/>
  <path fill="#EC4172" d="M1466.11 1082c9.04,5.75 22.57,4.69 32.38,0.58 -5.4,-5.46 -3.1,-1.88 -24.5,-2.75 -9.4,-0.38 -4.69,-0.69 -7.88,2.17z"/>
  <path fill="#EC4172" d="M1436.9 1184.34c1.58,-6.56 -0.41,-5.03 4.65,-2.4l-4.65 2.4zm-4.79 2.83c10.27,4.9 15.18,1.47 13.55,-9.86 -10.34,-4.11 -15.22,-1.42 -13.55,9.86z"/>
  <path fill="#EC4172" d="M1494.04 1181.79c6.44,-4.08 3.55,-0.6 5.24,0.05 -2.48,2.56 -1.78,5.17 -5.24,-0.05zm-4.21 -4.47l-0.56 8.98c10.44,6.99 17.25,0.82 12.71,-10.1 -7.35,-1.61 -5.63,-2.7 -12.15,1.12z"/>
  <path fill="#EC4172" d="M1446.75 1255.1l4.35 -0.55c-5.77,5.77 -2.28,2.8 -4.35,0.55zm-4.64 -3.66l0.53 9.83c9.02,2.15 4.18,2.93 12.48,-0.86 1.93,-10.48 -3.48,-14.83 -13.01,-8.97z"/>
  <path fill="#EC4172" d="M1522.28 1181.83c2.2,-0.81 -0.49,-3.84 5.45,0.32 -3.96,4.64 -2.87,2.73 -5.45,-0.32zm0.78 7.57l8.98 -2.55 0.2 -9.38c-12.8,-6.8 -20.53,3.49 -9.18,11.93z"/>
  <path fill="#EC4172" d="M1503.83 1234.74c8.97,-4.56 3.3,-1.37 5.4,-0.09 -4.91,2.86 -0.79,2.62 -5.4,0.09zm-3.46 -4.07c-2.25,6.15 -2.23,3.96 1.07,9.19l10.66 1.16 1.24 -11.88c-9.12,-2.42 -5.93,-3.1 -12.97,1.53z"/>
  <path fill="#EC4172" d="M1512.35 1254.22l5.18 1.32c-9.15,6.05 -3.57,0.95 -5.18,-1.32zm7.88 6.23l2.39 -7.5c-16.65,-15.32 -22.06,16.29 -2.39,7.5z"/>
  <path fill="#EC4172" d="M1455.09 1235.7c4.22,-4.74 0.86,-3.33 4.39,-1.05l-4.39 1.05zm-2.57 4.17c6.88,2.57 2.5,3.23 10.21,-0.35l1.05 -9.64c-9.6,-4.13 -17.32,1.1 -11.26,9.99z"/>
  <path fill="#EC4172" d="M1479.71 1224.56c-0.02,-0.89 4.85,-3.05 3.56,0.95 -0.38,1.17 -3.5,3.87 -3.56,-0.95zm-2.12 -4.7c-2.44,3.06 -5.57,8.88 1.71,11.62 7.38,2.78 9.46,-3.48 9.65,-8.96 -5.37,-5.07 -4,-4.93 -11.36,-2.66z"/>
  <path fill="white" d="M1605.65 1865.75l5.88 3.57c1.46,1.5 1.91,2.93 3.16,5.52l3.76 -5.28c2.49,-2.37 2.35,-1.3 5.87,-3.51l-9.63 -9.46c-4.93,8.64 -0.25,4.06 -9.04,9.16z"/>
  <path fill="#FDB5D0" d="M1453.4 1200.84c9.05,2.61 51.6,2.98 56.87,-0.72 -7.22,-0.64 -54.1,-0.7 -56.87,0.72z"/>
  <path fill="#FE6591" d="M2236.74 1872.16c8.2,4.82 18.66,3.74 27.78,0.63 -6.76,-5.44 -20.31,-5.5 -27.78,-0.63z"/>
  <path fill="#FE6591" d="M2291.63 1897.51c-0.22,-8.7 -6.04,-8.46 -13.46,-9.1 -0.64,9.42 4.95,16.06 13.46,9.1z"/>
  <path fill="#EC4172" d="M1582.23 1602.96c8.61,-1.34 16.81,-11.08 19.37,-19.31 -7.66,3.41 -17.16,10.89 -19.37,19.31z"/>
  <path fill="#FE6591" d="M2209.81 1896.48c7.44,8.28 13.59,1.91 13.76,-7.92 -7.66,0.28 -11.26,0.49 -13.76,7.92z"/>
  <path fill="white" d="M1645.41 2018.79c5.55,3.71 20.7,3.69 26.06,0 -5.34,-3.64 -20.65,-3.6 -26.06,0z"/>
  <path fill="white" d="M2256.18 1831.07c4.44,-5.37 5.61,-9.4 1.91,-15.75 -1.45,0.17 -10.89,-3.84 -3.27,13.37l1.36 2.38z"/>
  <path fill="#EC4172" d="M1589.65 1553.7l7.86 0.44c-3.46,-5.23 -0.03,-3.2 -6.17,-6.37l-1.44 -4.55 2.2 -3.55 -3.64 0.12 -3.84 6.26 5.03 7.65z"/>
  <path fill="white" d="M1604.97 1942.81c1.85,4.56 1.09,5.81 9.86,5.84 7.06,0.02 7.58,-1.1 9.86,-5.5 -9.69,0.89 -9.54,1.24 -19.72,-0.34z"/>
  <path fill="white" d="M1625.8 1916.07l-0.59 6.38c7.39,1.33 5.77,3.29 9.01,-3.45 -3.41,-6.97 -2.09,-4.97 -8.42,-2.93z"/>
  <path fill="white" d="M1619.26 2010.73c-1.11,-6.78 -0.21,-9.52 -8.41,-4.05 0.72,8.38 2.25,7.48 8.41,4.05z"/>
  <path fill="white" d="M1596.4 1921.03c5.53,3.75 0.73,2.39 7.47,1.52l0.61 -7.05c-8.27,-0.77 -7.39,-2.31 -8.08,5.53z"/>
  <path fill="white" d="M1617.43 2019.88c-9.28,0.44 -11.31,8.45 1.78,8.38l-1.78 -8.38z"/>
  <path fill="#EC4172" d="M2020.77 1973.05c2.82,6.15 11.25,5.48 14.89,0.81l-14.89 -0.81z"/>
  <path fill="#EB93AC" d="M1423.05 1213.71c2.32,2.73 -4.54,3.41 6.37,3.7 6.78,0.18 4.67,-0.98 6.27,-3.03l-12.64 -0.67z"/>
  <path fill="#FDB5D0" d="M1541.61 1673.46c2.92,-5.85 5.78,-3.05 -2.17,-6.91 -6.01,7.31 -1.26,4.98 2.17,6.91z"/>
  <path fill="#FDB5D0" d="M1487.27 1648.15c2.36,6.42 -0.88,4.8 6.29,3.02 -0.9,-6.9 -0.26,-7.6 -6.29,-3.02z"/>
  <path fill="#FDB5D0" d="M1552.03 1654.26c1.85,3.71 2.82,8.79 6.49,0.86 -2.8,-4.09 0.85,-6.2 -6.49,-0.86z"/>
  <path fill="#FDB5D0" d="M1579.71 1563.78c4.67,-4.94 4.07,-2.26 -0.09,-6.41 -6.01,2.75 -6.33,4.21 0.09,6.41z"/>
  <path fill="#FDB5D0" d="M1490.52 1684.65c6.8,-0.73 7.46,1.05 4.01,-6.22 -6,2.43 -3.89,-3.64 -4.01,6.22z"/>
  <path fill="#FDB5D0" d="M1475.83 1667.08c6.55,-6.17 2.76,-3.09 0.23,-6.42 -3.92,2.26 -7.95,3.52 -0.23,6.42z"/>
  <path fill="#FDB5D0" d="M1502.04 1633.89c1.93,6.02 0.97,5.13 6.13,1.97 -1.9,-5.12 -0.18,-7.91 -6.13,-1.97z"/>
  <path fill="#FDB5D0" d="M1602.45 1613.62c-1.27,-13.75 -14.13,-0.69 0,0z"/>
  <path fill="#FDB5D0" d="M1584.55 1628.56c5.89,-3.08 4.18,-2.33 1.4,-6.13 -4.72,1.82 -8.13,1.57 -1.4,6.13z"/>
  <path fill="#FDB5D0" d="M1534.88 1607.85c6.64,-5.84 2.73,-3 0.24,-6.15 -5.11,2.25 -6.74,3.63 -0.24,6.15z"/>
  <path fill="#FDB5D0" d="M1515.97 1619.17l4.47 4.25c4.13,-4.58 4.98,-2.03 0.27,-6.95l-4.74 2.7z"/>
  <path fill="#EB93AC" d="M1417.94 1254.02l12.64 -0.95c-4.43,-3.95 -7.97,-3.93 -12.64,0.95z"/>
  <path fill="#FDB5D0" d="M1617.08 1596.66c-2.12,-6.97 -2.98,-3.61 -6,-1.43 1.92,1.68 -0.17,7.93 6,1.43z"/>
  <path fill="#FDB5D0" d="M1552.09 1590.63c-2.18,-6.22 -1.77,-4.36 -5.78,-1.35 1.46,1.43 -0.66,8.36 5.78,1.35z"/>
  <path fill="#FDB5D0" d="M1508.23 1701.51l5.43 0.83 -1.24 -5.94c-4.23,1.23 -4.65,0.65 -4.19,5.11z"/>
  <path fill="white" d="M2218.68 1000.2c-2.04,-5.86 -1.48,-4.54 -7.43,-5.91 2.46,5.14 1.47,5.2 7.43,5.91z"/>
  <path fill="#FDB5D0" d="M1566.41 1577.55c0.61,-7.85 -4.15,-6.21 -5.35,0.49l5.35 -0.49z"/>
  <polygon fill="#FDB5D0" points="1567.37,1642.94 1573.53,1642.4 1569.44,1636.8 "/>
  <polygon fill="#FDB5D0" points="1522.59,1683.47 1526.97,1687.89 1528.3,1682.24 "/>
  <path fill="#FDB5D0" d="M1494.04 1181.79c3.46,5.22 2.76,2.61 5.24,0.05 -1.69,-0.65 1.2,-4.13 -5.24,-0.05z"/>
  <path fill="#FDB5D0" d="M1591.34 1547.77c9.16,4.07 1.56,1.13 3.61,-1.45l-5.05 -3.1 1.44 4.55z"/>
  <path fill="#FDB5D0" d="M1522.28 1181.83c2.58,3.05 1.49,4.96 5.45,0.32 -5.94,-4.16 -3.25,-1.13 -5.45,-0.32z"/>
  <path fill="#FDB5D0" d="M1465.32 1181.79c2.8,4.71 2.4,3.02 5.07,0.1 -1.83,-0.82 1.61,-3.93 -5.07,-0.1z"/>
  <path fill="#FDB5D0" d="M1479.71 1224.56c0.06,4.82 3.18,2.12 3.56,0.95 1.29,-4 -3.58,-1.84 -3.56,-0.95z"/>
  <path fill="#FDB5D0" d="M1512.35 1254.22c1.61,2.27 -3.97,7.37 5.18,1.32l-5.18 -1.32z"/>
  <path fill="#FDB5D0" d="M1503.83 1234.74c4.61,2.53 0.49,2.77 5.4,-0.09 -2.1,-1.28 3.57,-4.47 -5.4,0.09z"/>
  <path fill="#FDB5D0" d="M1441.55 1181.94c-5.06,-2.63 -3.07,-4.16 -4.65,2.4l4.65 -2.4z"/>
  <path fill="#FDB5D0" d="M1446.75 1255.1c2.07,2.25 -1.42,5.22 4.35,-0.55l-4.35 0.55z"/>
  <path fill="#FDB5D0" d="M1455.09 1235.7l4.39 -1.05c-3.53,-2.28 -0.17,-3.69 -4.39,1.05z"/>
 </g>
</svg>
