<?xml version="1.0" encoding="UTF-8"?>
<!DOCTYPE svg PUBLIC "-//W3C//DTD SVG 1.1//EN" "http://www.w3.org/Graphics/SVG/1.1/DTD/svg11.dtd">
<!-- Creator: CorelDRAW -->
<svg xmlns="http://www.w3.org/2000/svg" xml:space="preserve" width="87px" height="87px" version="1.1" shape-rendering="geometricPrecision" text-rendering="geometricPrecision" image-rendering="optimizeQuality" fill-rule="evenodd" clip-rule="evenodd"
viewBox="0 0 8.38 8.38"
 xmlns:xlink="http://www.w3.org/1999/xlink"
 xmlns:xodm="http://www.corel.com/coreldraw/odm/2003">
 <g id="Layer_x0020_1">
  <metadata id="CorelCorpID_0Corel-Layer"/>
  <path fill="#2D3F50" d="M5.2 4.54c-0.42,0.05 -0.72,0.43 -0.66,0.85 0.05,0.42 0.43,0.71 0.84,0.67 1,-0.12 0.84,-1.64 -0.18,-1.52zm0.01 0.41c0.43,-0.14 0.64,0.57 0.19,0.69 -0.44,0.12 -0.68,-0.53 -0.19,-0.69zm0.42 -2.45c-0.12,0.04 -0.75,0.7 -0.88,0.84l-2.2 2.2c-0.12,0.16 0,0.38 0.2,0.33 0.13,-0.04 0.74,-0.69 0.88,-0.83l1.77 -1.77c0.14,-0.14 0.31,-0.28 0.43,-0.43 0.11,-0.15 0.01,-0.39 -0.2,-0.34zm-2.6 -0.18c-1.06,0.11 -0.86,1.63 0.14,1.52 0.42,-0.05 0.72,-0.42 0.67,-0.84 -0.04,-0.4 -0.41,-0.72 -0.81,-0.68zm0.4 0.86c-0.15,0.45 -0.82,0.26 -0.69,-0.2 0.12,-0.46 0.83,-0.25 0.69,0.2z"/>
  <circle fill="none" stroke="#F560AD" stroke-width="0.29" stroke-miterlimit="22.9256" cx="4.19" cy="4.19" r="4.04"/>
 </g>
</svg>
