<?xml version="1.0" encoding="UTF-8"?>
<!DOCTYPE svg PUBLIC "-//W3C//DTD SVG 1.1//EN" "http://www.w3.org/Graphics/SVG/1.1/DTD/svg11.dtd">
<!-- Creator: CorelDRAW -->
<svg xmlns="http://www.w3.org/2000/svg" xml:space="preserve" width="87px" height="87px" version="1.1" shape-rendering="geometricPrecision" text-rendering="geometricPrecision" image-rendering="optimizeQuality" fill-rule="evenodd" clip-rule="evenodd"
viewBox="0 0 20.44 20.44"
 xmlns:xlink="http://www.w3.org/1999/xlink"
 xmlns:xodm="http://www.corel.com/coreldraw/odm/2003">
 <g id="Layer_x0020_1">
  <metadata id="CorelCorpID_0Corel-Layer"/>
  <path fill="#2D3F50" d="M4.68 11.35l3.8 0 0 4.09 -3.8 0 0 -4.09zm2.34 3.51l0.88 0 0 -0.59 -0.88 0 0 0.59zm-1.75 0l0.87 0 0 -0.59 -0.87 0 0 0.59zm1.75 -1.17l0.88 0 0 -0.59 -0.88 0 0 0.59zm-1.75 0l0.87 0 0 -0.59 -0.87 0 0 0.59zm1.75 -1.17l0.88 0 0 -0.59 -0.88 0 0 0.59zm-1.75 0l0.87 0 0 -0.59 -0.87 0 0 0.59zm5.26 -3.52l1.47 0 0 -0.58 -1.47 0 0 0.58zm-2.92 -2.34l1.75 0 0 -0.58 -1.75 0 0 0.58zm6.14 8.2l1.47 0 0 -0.88 -1.47 0 0 0.88zm0 -1.47l1.47 0 0 -0.87 -1.47 0 0 0.87zm0 -1.46l1.47 0 0 -0.88 -1.47 0 0 0.88zm0 -1.46l1.47 0 0 -0.88 -1.47 0 0 0.88zm0 -1.47l1.47 0 0 -0.87 -1.47 0 0 0.87zm-6.14 0l2.34 0 0 -0.58 -2.34 0 0 0.58zm2.05 2.35l2.34 0 0 -0.59 -2.34 0 0 0.59zm-2.05 -1.18l4.39 0 0 -0.58 -4.39 0 0 0.58zm0 -2.34l4.39 0 0 -0.58 -4.39 0 0 0.58zm6.14 -0.29l2.05 0 0 7.9 -2.05 0 0 0.59 2.64 0 0 -9.08 -2.64 0 0 0.59zm-3.51 5.85c0,-0.3 0.29,-0.58 0.59,-0.58 0.3,0 0.58,0.28 0.58,0.58 0,0.3 -0.28,0.59 -0.58,0.59 -0.3,0 -0.59,-0.29 -0.59,-0.59zm-3.22 -8.95l5.56 1.85 0 9.15 -1.46 0 0 -0.85c0,-0.13 0.09,-0.04 0.3,-0.19 1.1,-0.72 0.47,-2.18 -0.51,-2.18l-0.17 0c-0.54,0 -1.08,0.55 -1.08,1.09 0,0.52 0.13,0.8 0.57,1.09 0.38,0.25 0.3,-0.21 0.3,1.04l-1.46 0 0 -4.68 -2.05 0 0 -6.32zm-0.58 6.32l-0.88 0 0 -1.46 -0.59 0 0 1.46 -0.88 0 0 5.27 9.08 0 0 -10.19c-0.26,-0.02 -0.62,-0.24 -0.88,-0.26l0 -1.85 -0.59 0 0 1.64c-0.08,-0.04 -0.19,-0.07 -0.3,-0.1 -0.1,-0.04 -0.28,-0.06 -0.28,-0.16l0 -1.38 -0.59 0 0 1.23 -4.09 -1.35 0 7.15z"/>
  <circle fill="none" stroke="#F560AD" stroke-width="0.71" stroke-miterlimit="22.9256" cx="10.22" cy="10.22" r="9.87"/>
 </g>
</svg>
